<?xml version="1.0" encoding="utf-8"?>
<!-- Generator: Adobe Illustrator 22.0.0, SVG Export Plug-In . SVG Version: 6.00 Build 0)  -->
<svg version="1.1" id="Calque_1" xmlns="http://www.w3.org/2000/svg" xmlns:xlink="http://www.w3.org/1999/xlink" x="0px" y="0px"
	 viewBox="0 0 743.2410889 290.5458679" style="enable-background:new 0 0 743.2410889 290.5458679;" xml:space="preserve">
<style type="text/css">
	.st0{fill:url(#SVGID_1_);}
	.st1{fill:url(#SVGID_2_);}
	.st2{fill:#FFFFFF;}
	.st3{fill:url(#SVGID_3_);}
	.st4{fill:url(#SVGID_4_);}
	.st5{fill:#0F5566;}
	.st6{fill:url(#SVGID_5_);}
	.st7{fill:url(#SVGID_6_);}
	.st8{fill:url(#SVGID_7_);}
	.st9{fill:#031114;}
	.st10{fill:url(#SVGID_8_);}
	.st11{fill:none;}
	.st12{fill:url(#SVGID_9_);}
	.st13{fill:url(#SVGID_10_);}
	.st14{fill:url(#SVGID_11_);}
	.st15{fill:url(#SVGID_12_);}
	.st16{fill:url(#SVGID_13_);}
	.st17{fill:url(#SVGID_14_);}
	.st18{fill:url(#SVGID_15_);}
	.st19{fill:url(#SVGID_16_);}
	.st20{fill:url(#SVGID_17_);}
	.st21{fill:url(#SVGID_18_);}
	.st22{fill:url(#SVGID_19_);}
	.st23{fill:url(#SVGID_20_);}
	.st24{fill:url(#SVGID_21_);}
	.st25{fill:url(#SVGID_22_);}
	.st26{fill:url(#SVGID_23_);}
	.st27{fill:url(#SVGID_24_);}
	.st28{fill:url(#SVGID_25_);}
	.st29{fill:url(#SVGID_26_);}
	.st30{fill:url(#SVGID_27_);}
	.st31{fill:url(#SVGID_28_);}
	.st32{fill:url(#SVGID_29_);}
	.st33{fill:url(#SVGID_30_);}
	.st34{fill:url(#SVGID_31_);}
	.st35{fill:url(#SVGID_32_);}
	.st36{fill:url(#SVGID_33_);}
	.st37{fill:url(#SVGID_34_);}
	.st38{fill:url(#SVGID_35_);}
	.st39{fill:url(#SVGID_36_);}
	.st40{fill:url(#SVGID_37_);}
	.st41{fill:url(#SVGID_38_);}
	.st42{fill:url(#SVGID_39_);}
	.st43{fill:url(#SVGID_40_);}
	.st44{fill:url(#SVGID_41_);}
	.st45{fill:url(#SVGID_42_);}
	.st46{fill:url(#SVGID_43_);}
	.st47{fill:url(#SVGID_44_);}
	.st48{fill:url(#SVGID_45_);}
	.st49{fill:url(#SVGID_46_);}
	.st50{fill:url(#SVGID_47_);}
	.st51{fill:url(#SVGID_48_);}
	.st52{fill:url(#SVGID_49_);}
	.st53{fill:url(#SVGID_50_);}
	.st54{fill:url(#SVGID_51_);}
	.st55{fill:url(#SVGID_52_);}
	.st56{fill:url(#SVGID_53_);}
	.st57{fill:url(#SVGID_54_);}
	.st58{fill:url(#SVGID_55_);}
	.st59{fill:url(#SVGID_56_);}
	.st60{fill:url(#SVGID_57_);}
	.st61{fill:url(#SVGID_58_);}
	.st62{fill:url(#SVGID_59_);}
	.st63{fill:url(#SVGID_60_);}
	.st64{fill:url(#SVGID_61_);}
	.st65{fill:url(#SVGID_62_);}
	.st66{fill:url(#SVGID_63_);}
	.st67{fill:url(#SVGID_64_);}
	.st68{fill:url(#SVGID_65_);}
	.st69{fill:url(#SVGID_66_);}
	.st70{fill:url(#SVGID_67_);}
	.st71{fill:url(#SVGID_68_);}
	.st72{fill:url(#SVGID_69_);}
	.st73{fill:url(#SVGID_70_);}
	.st74{fill:url(#SVGID_71_);}
	.st75{fill:url(#SVGID_72_);}
	.st76{fill:url(#SVGID_73_);}
	.st77{fill:url(#SVGID_74_);}
	.st78{fill:url(#SVGID_75_);}
	.st79{fill:url(#SVGID_76_);}
	.st80{fill:url(#SVGID_77_);}
	.st81{fill:url(#SVGID_78_);}
	.st82{fill:url(#SVGID_79_);}
	.st83{fill:url(#SVGID_80_);}
	.st84{fill:url(#SVGID_81_);}
	.st85{fill:url(#SVGID_82_);}
	.st86{fill:url(#SVGID_83_);}
	.st87{fill:url(#SVGID_84_);}
</style>
<linearGradient id="SVGID_1_" gradientUnits="userSpaceOnUse" x1="118.8757095" y1="57.5429115" x2="118.8757095" y2="44.14711">
	<stop  offset="0" style="stop-color:#072A33"/>
	<stop  offset="0.3985148" style="stop-color:#07272E"/>
	<stop  offset="0.7623762" style="stop-color:#031114"/>
</linearGradient>
<path class="st0" d="M120.625206,57.5429115c1.4088821-1.1676712,2.8379669-2.3100014,4.3075104-3.3990479l-6.7542191-9.9967537
	c-1.8327942,1.3225365-3.6096039,2.7204666-5.3597946,4.1519394L120.625206,57.5429115z"/>
<g>
	
		<radialGradient id="SVGID_2_" cx="231.7019501" cy="296.0901794" r="44.0460892" gradientTransform="matrix(1.8580981 0 0 1.8460374 -269.9501953 -387.4963684)" gradientUnits="userSpaceOnUse">
		<stop  offset="0.2178218" style="stop-color:#000000;stop-opacity:0.9"/>
		<stop  offset="1" style="stop-color:#FFFFFF"/>
	</radialGradient>
	<ellipse class="st1" cx="160.5747681" cy="159.097168" rx="81.8264008" ry="81.2952728"/>
	<path class="st2" d="M189.7941589,108.81147c-28.669281-15.494873-64.5534897-4.9656906-80.1495895,23.5175095
		s-4.9982071,64.1344147,23.6710739,79.6292877s64.5534363,4.9657745,80.1495361-23.5174255
		S218.4634399,124.3063431,189.7941589,108.81147z M136.0296783,202.7116699
		c-24.0355759-12.9904938-32.9517746-42.9862823-19.8770905-66.8645935
		c13.0753784-23.8795776,43.2668304-32.7388611,67.3024139-19.7483597s32.9524078,42.9866104,19.8770447,66.866188
		C190.2573547,206.8432159,160.0652618,215.7021637,136.0296783,202.7116699z"/>
</g>
<g>
	
		<linearGradient id="SVGID_3_" gradientUnits="userSpaceOnUse" x1="94.1838303" y1="159.4055939" x2="225.3012543" y2="159.4055939">
		<stop  offset="0" style="stop-color:#1A0500"/>
		<stop  offset="0.230198" style="stop-color:#C22500;stop-opacity:0.9967822"/>
		<stop  offset="0.7821782" style="stop-color:#FF3100;stop-opacity:0.9"/>
	</linearGradient>
	<path class="st3" d="M128.409668,216.629364c-31.7595062-17.1650391-43.5420837-56.8001099-26.2648926-88.3534698
		s57.1717072-43.2591934,88.9312286-26.0941467s43.5413055,56.8003387,26.2641144,88.353714
		S160.1691895,233.7944183,128.409668,216.629364z M186.5703888,110.4103546
		c-27.192688-14.6968155-61.3504105-4.6742783-76.1432495,22.3419037
		c-14.7925568,27.015686-4.7045364,60.9516907,22.4881439,75.6485138
		c27.1921844,14.6965332,61.3499146,4.673996,76.1424713-22.3416748
		C223.8505859,159.0429077,213.7625732,125.1068954,186.5703888,110.4103546z"/>
</g>
<linearGradient id="SVGID_4_" gradientUnits="userSpaceOnUse" x1="76.727829" y1="160.1034698" x2="245.3408051" y2="160.1034698">
	<stop  offset="0" style="stop-color:#031114"/>
	<stop  offset="0.230198" style="stop-color:#072A33"/>
	<stop  offset="0.7871287" style="stop-color:#168099;stop-opacity:0.9"/>
</linearGradient>
<path class="st4" d="M120.7405396,233.6917725c-40.8416977-22.0736847-55.9927597-73.0435333-33.7751999-113.6194992
	c22.2182465-40.5772171,73.5208054-55.6309052,114.3624954-33.5572205s55.9933929,73.0438766,33.7751465,113.6210861
	C212.8854218,240.7121124,161.5822296,255.7654572,120.7405396,233.6917725z M199.2195282,90.3654633
	c-38.7045898-20.9186401-87.3229675-6.6525421-108.378624,31.8014374
	c-21.0549698,38.4527283-6.69664,86.7558136,32.0079422,107.6744537s87.3235931,6.6528931,108.3785706-31.7998352
	C252.2830658,159.5875397,237.9241028,111.284111,199.2195282,90.3654633z"/>
<path class="st5" d="M136.0296631,202.7116852c-24.0355759-12.990509-32.9517746-42.9862823-19.8770905-66.8645935
	c13.0753784-23.8795776,43.2668304-32.7388611,67.3024139-19.7483597s32.9524078,42.9866104,19.8770447,66.866188
	C190.2573395,206.8432312,160.0652466,215.702179,136.0296631,202.7116852z M182.7522278,117.3822021
	c-23.3227997-12.6052628-52.6201782-4.008316-65.3078003,19.1630859
	c-12.6876068,23.1714172-4.0347824,52.2776642,19.2880096,64.8829193
	c23.3234253,12.6056061,52.6201324,4.009903,65.3077393-19.161499S206.0756531,129.987793,182.7522278,117.3822021z"/>
<linearGradient id="SVGID_5_" gradientUnits="userSpaceOnUse" x1="130.6494446" y1="41.6022148" x2="124.4736481" y2="21.6663094">
	<stop  offset="0" style="stop-color:#072A33"/>
	<stop  offset="0.3985148" style="stop-color:#07272E"/>
	<stop  offset="0.7623762" style="stop-color:#031114"/>
</linearGradient>
<path class="st6" d="M129.100708,40.6269493c1.9386749-1.2682381,3.8992004-2.5018806,5.9028473-3.6627274l-7.0557022-13.5238361
	c-2.4938583,1.4028053-4.9282227,2.9085274-7.3338699,4.460043L129.100708,40.6269493z"/>
<linearGradient id="SVGID_6_" gradientUnits="userSpaceOnUse" x1="150.4816437" y1="45.9373131" x2="150.4816437" y2="61.641922">
	<stop  offset="0.1683168" style="stop-color:#1A0500"/>
	<stop  offset="0.9306931" style="stop-color:#FF3100;stop-opacity:0.9"/>
</linearGradient>
<path class="st7" d="M140.9627075,45.9373131c-0.6999512,2.6645393-1.453476,5.314045-2.273468,7.9424667l20.5821075,7.7621422
	c1.0993347-3.3576889,2.0815582-6.7527885,3.0027008-10.1657829L140.9627075,45.9373131z"/>
<linearGradient id="SVGID_7_" gradientUnits="userSpaceOnUse" x1="162.2740479" y1="33.8496361" x2="162.2740479" y2="14.662921">
	<stop  offset="0" style="stop-color:#168099"/>
	<stop  offset="0.7623762" style="stop-color:#031114"/>
</linearGradient>
<path class="st8" d="M155.1608887,31.4536533c2.5509033,0.7384892,5.0876617,1.5215626,7.592514,2.3959827l6.6338043-16.1426449
	c-3.0807953-1.1195526-6.2077789-2.1112337-9.3536377-3.0440702L155.1608887,31.4536533z"/>
<path class="st9" d="M191.508728,25.4394531c1.1947632,0.3458881,2.3829193,0.7126579,3.5561218,1.1222095l3.1070709-7.5607471
	c-1.4429626-0.5243664-2.907547-0.9888401-4.3809662-1.4257545L191.508728,25.4394531z"/>
<linearGradient id="SVGID_8_" gradientUnits="userSpaceOnUse" x1="188.4559937" y1="28.5966606" x2="188.4559937" y2="35.4706764">
	<stop  offset="0.1683168" style="stop-color:#1A0500"/>
	<stop  offset="0.9306931" style="stop-color:#FF3100;stop-opacity:0.9"/>
</linearGradient>
<path class="st10" d="M189.5357513,28.5966606c-0.9951782,0.1221046-1.992157,0.226656-2.9917908,0.2948151l0.1244659,6.5792007
	c1.236084-0.0685501,2.4689941-0.1882744,3.6996002-0.331192L189.5357513,28.5966606z"/>
<path class="st11" d="M55.9891396,200.9513855C22.3881359,228.2988892,3.384191,250.0931091,8.4361,258.0567017
	c5.1189604,8.0695496,33.7852821,0.1305542,73.9403381-18.718277
	C70.7665253,228.3939514,61.8639717,215.2566071,55.9891396,200.9513855z"/>
<radialGradient id="SVGID_9_" cx="172.3113861" cy="331.0510559" r="28.7694073" gradientTransform="matrix(1.4288042 -1.1801648 0.2399436 0.2867365 -275.4115295 332.067688)" gradientUnits="userSpaceOnUse">
	<stop  offset="0.2376238" style="stop-color:#168099;stop-opacity:0.9"/>
	<stop  offset="0.5618812" style="stop-color:#09313B;stop-opacity:0.9680693"/>
	<stop  offset="1" style="stop-color:#031114"/>
</radialGradient>
<path class="st12" d="M59.5138588,208.6973877c0.0128365-0.0110626,0.0242348-0.0214081,0.0369835-0.0326385
	c-1.2757683-2.5331879-2.4143524-5.0958099-3.4893265-7.7133636C22.4605141,228.2988892,3.384191,250.0931091,8.4361,258.0567017
	c5.1189604,8.0695496,33.7852821,0.1305542,73.9403381-18.718277
	C82.3764343,239.3384247-37.0232697,293.2144165,59.5138588,208.6973877z"/>
<radialGradient id="SVGID_10_" cx="272.9115906" cy="267.6545105" r="6.9220667" gradientTransform="matrix(1.0071709 1.5513177 -9.5435753 6.1158557 2516.6589355 -1953.7052002)" gradientUnits="userSpaceOnUse">
	<stop  offset="0" style="stop-color:#168099;stop-opacity:0.9"/>
	<stop  offset="0.2277228" style="stop-color:#072A33"/>
	<stop  offset="1" style="stop-color:#031114"/>
</radialGradient>
<path class="st13" d="M316.0682068,65.4300385c-6.1570435-9.70578-46.3800659,3.7490463-99.6869354,31.4907227
	c4.6088562,3.9839401,8.6948547,8.4160843,12.2538605,13.1808701l0.0259399,0.0112305
	c0,0,56.9733276-34.5332947,31.1377869-8.449791c0,0,25.7958679-0.1416168,11.2539368,18.7901611
	c0.0412903-0.0340652,0.0830078-0.0681305,0.1242981-0.1021957c1.2178955-1.0624695,2.572113-2.1878967,4.0437317-3.3657608
	C304.6052246,92.2626343,320.7731934,72.8467941,316.0682068,65.4300385z"/>
<linearGradient id="SVGID_11_" gradientUnits="userSpaceOnUse" x1="14.0479383" y1="251.9979095" x2="70.7760315" y2="219.2459259">
	<stop  offset="0.0940594" style="stop-color:#FF3100;stop-opacity:0.9"/>
	<stop  offset="0.6212871" style="stop-color:#C22500;stop-opacity:0.9967822"/>
	<stop  offset="0.9108911" style="stop-color:#1A0500"/>
</linearGradient>
<path class="st14" d="M59.5138588,208.6973877c0.0128365-0.0110626,0.0524483-0.0315704,0.0651932-0.0428009
	c-1.2757683-2.5332031-2.4425621-5.0856476-3.5175362-7.7032013c-65.4386597,64.7731934-37.9944572,63.1526489-8.6921806,53.0957031
	c10.1914215-3.6436462,21.9903679-8.5987244,35.0070992-14.7086639
	C82.3764343,239.3384247-37.0232697,293.2144165,59.5138588,208.6973877z"/>
<linearGradient id="SVGID_12_" gradientUnits="userSpaceOnUse" x1="222.8352203" y1="108.0993042" x2="283.0728149" y2="73.3211212">
	<stop  offset="0" style="stop-color:#1A0500"/>
	<stop  offset="0.230198" style="stop-color:#C22500;stop-opacity:0.9967822"/>
	<stop  offset="0.7821782" style="stop-color:#FF3100;stop-opacity:0.9"/>
</linearGradient>
<path class="st15" d="M216.3812714,96.9207611c4.6088562,3.9839401,8.6948547,8.4160843,12.2538605,13.1808701l0.0259399,0.0112305
	c0,0,56.9733276-34.5332947,31.1377869-8.449791C332.7810974,39.7678146,216.3812714,96.9207611,216.3812714,96.9207611z"/>
<g>
	
		<radialGradient id="SVGID_13_" cx="232.2307434" cy="296.6429443" r="53.3387527" gradientTransform="matrix(1.8580981 0 0 1.8460374 -269.9501953 -387.4963684)" gradientUnits="userSpaceOnUse">
		<stop  offset="0" style="stop-color:#FFFFFF"/>
		<stop  offset="0.8811881" style="stop-color:#168099"/>
		<stop  offset="1" style="stop-color:#072A33"/>
	</radialGradient>
	<path class="st16" d="M116.4100723,84.0427856c1.298233-0.182991,2.598381-0.3468475,3.9015732-0.4711304l-0.3731232-10.4221725
		c-1.6767654,0.1389923-3.3495407,0.3379593-5.0196915,0.5645142L116.4100723,84.0427856z"/>
	
		<radialGradient id="SVGID_14_" cx="232.2307434" cy="296.6429443" r="53.3387527" gradientTransform="matrix(1.8580981 0 0 1.8460374 -269.9501953 -387.4963684)" gradientUnits="userSpaceOnUse">
		<stop  offset="0" style="stop-color:#FFFFFF"/>
		<stop  offset="0.8811881" style="stop-color:#168099"/>
		<stop  offset="1" style="stop-color:#072A33"/>
	</radialGradient>
	<path class="st17" d="M128.1522369,75.234375c1.196167-0.5393066,2.4028015-1.0545502,3.6213989-1.5391617l-3.266983-9.8437157
		c-1.5721664,0.6000481-3.1232681,1.2542076-4.6627426,1.9359779L128.1522369,75.234375z"/>
	
		<radialGradient id="SVGID_15_" cx="232.2307434" cy="296.6429443" r="53.3387527" gradientTransform="matrix(1.8580981 0 0 1.8460374 -269.9501953 -387.4963684)" gradientUnits="userSpaceOnUse">
		<stop  offset="0" style="stop-color:#FFFFFF"/>
		<stop  offset="0.8811881" style="stop-color:#168099"/>
		<stop  offset="1" style="stop-color:#072A33"/>
	</radialGradient>
	<path class="st18" d="M135.7709961,78.1092224c21.2819824-6.3966522,45.0229492-4.6834488,66.0509949,6.6813965
		l4.5550079-8.3187027c-0.3139954-0.1741714-0.6145935-0.3628693-0.931366-0.5340881
		c-23.1532135-12.5136414-49.2131653-14.5365562-72.6508331-7.697937L135.7709961,78.1092224z"/>
	
		<radialGradient id="SVGID_16_" cx="232.2307434" cy="296.6429443" r="53.3387527" gradientTransform="matrix(1.8580981 0 0 1.8460374 -269.9501953 -387.4963684)" gradientUnits="userSpaceOnUse">
		<stop  offset="0" style="stop-color:#FFFFFF"/>
		<stop  offset="0.8811881" style="stop-color:#168099"/>
		<stop  offset="1" style="stop-color:#072A33"/>
	</radialGradient>
	<path class="st19" d="M205.8914948,232.654007c-24.4670258,14.9524078-55.8186951,17.3269806-83.1430817,3.9763489
		l-4.566658,8.3401794c30.4534683,14.6282501,65.2359848,11.7701874,92.3014603-5.0286102L205.8914948,232.654007z"/>
	
		<radialGradient id="SVGID_17_" cx="232.2307434" cy="296.6429443" r="53.3387527" gradientTransform="matrix(1.8580981 0 0 1.8460374 -269.9501953 -387.4963684)" gradientUnits="userSpaceOnUse">
		<stop  offset="0" style="stop-color:#FFFFFF"/>
		<stop  offset="0.8811881" style="stop-color:#168099"/>
		<stop  offset="1" style="stop-color:#072A33"/>
	</radialGradient>
	<path class="st20" d="M114.7206192,232.1862946l-5.4919586,7.8880157c1.4235153,0.878067,2.8749237,1.726944,4.3593369,2.5394287
		l4.5809479-8.3663177C116.9961777,233.5855865,115.850174,232.8944397,114.7206192,232.1862946z"/>
	
		<radialGradient id="SVGID_18_" cx="232.2307434" cy="296.6429443" r="53.3387527" gradientTransform="matrix(1.8580981 0 0 1.8460374 -269.9501953 -387.4963684)" gradientUnits="userSpaceOnUse">
		<stop  offset="0" style="stop-color:#FFFFFF"/>
		<stop  offset="0.8811881" style="stop-color:#168099"/>
		<stop  offset="1" style="stop-color:#072A33"/>
	</radialGradient>
	<path class="st21" d="M100.8562164,234.2531738c1.3230362,1.0248718,2.6704483,2.0273285,4.0588074,2.9901123l5.5207672-7.9293671
		c-1.0906601-0.778244-2.1580658-1.5791168-3.2026825-2.4008484L100.8562164,234.2531738z"/>
	
		<radialGradient id="SVGID_19_" cx="232.2307434" cy="296.6429443" r="53.3387527" gradientTransform="matrix(1.8580981 0 0 1.8460374 -269.9501953 -387.4963684)" gradientUnits="userSpaceOnUse">
		<stop  offset="0" style="stop-color:#FFFFFF"/>
		<stop  offset="0.8811881" style="stop-color:#168099"/>
		<stop  offset="1" style="stop-color:#072A33"/>
	</radialGradient>
	<path class="st22" d="M100.3806915,220.8681641l-7.2169113,6.7038269c1.2057648,1.1608734,2.4341049,2.3036041,3.7091599,3.4070129
		l6.4186325-7.3882141C102.2953796,222.7047272,101.3284531,221.7941132,100.3806915,220.8681641z"/>
	
		<radialGradient id="SVGID_20_" cx="232.2307434" cy="296.6429443" r="53.3387527" gradientTransform="matrix(1.8580981 0 0 1.8460374 -269.9501953 -387.4963684)" gradientUnits="userSpaceOnUse">
		<stop  offset="0" style="stop-color:#FFFFFF"/>
		<stop  offset="0.8811881" style="stop-color:#168099"/>
		<stop  offset="1" style="stop-color:#072A33"/>
	</radialGradient>
	<path class="st23" d="M86.2371902,220.1936951c1.073761,1.2833557,2.1706543,2.5509186,3.3175659,3.7822113l7.2604599-6.7443848
		c-0.8910522-0.9826202-1.7484283-1.9894714-2.5889053-3.0079193L86.2371902,220.1936951z"/>
	
		<radialGradient id="SVGID_21_" cx="232.2307434" cy="296.6429443" r="53.3387527" gradientTransform="matrix(1.8580981 0 0 1.8460374 -269.9501953 -387.4963684)" gradientUnits="userSpaceOnUse">
		<stop  offset="0" style="stop-color:#FFFFFF"/>
		<stop  offset="0.8811881" style="stop-color:#168099"/>
		<stop  offset="1" style="stop-color:#072A33"/>
	</radialGradient>
	<path class="st24" d="M80.1088943,211.9882813c0.9416351,1.4106598,1.9099274,2.8061218,2.9301529,4.169693l8.0326691-6.0026703
		c-0.7911453-1.0860596-1.5450897-2.1945343-2.2819061-3.3129272L80.1088943,211.9882813z"/>
	
		<radialGradient id="SVGID_22_" cx="232.2307434" cy="296.6429443" r="53.3387527" gradientTransform="matrix(1.8580981 0 0 1.8460374 -269.9501953 -387.4963684)" gradientUnits="userSpaceOnUse">
		<stop  offset="0" style="stop-color:#FFFFFF"/>
		<stop  offset="0.8811881" style="stop-color:#168099"/>
		<stop  offset="1" style="stop-color:#072A33"/>
	</radialGradient>
	<path class="st25" d="M70.7139511,193.9929047c0.6124115,1.557251,1.2572556,3.1026764,1.951889,4.627594l9.3403931-4.2674866
		c-0.5298538-1.1976166-1.0135422-2.4135742-1.4878235-3.6327057L70.7139511,193.9929047z"/>
	
		<radialGradient id="SVGID_23_" cx="232.2307434" cy="296.6429443" r="53.3387527" gradientTransform="matrix(1.8580981 0 0 1.8460374 -269.9501953 -387.4963684)" gradientUnits="userSpaceOnUse">
		<stop  offset="0" style="stop-color:#FFFFFF"/>
		<stop  offset="0.8811881" style="stop-color:#168099"/>
		<stop  offset="1" style="stop-color:#072A33"/>
	</radialGradient>
	<path class="st26" d="M67.5171661,184.3539429c0.4432068,1.6132507,0.922699,3.2165833,1.4502792,4.804718l9.8248749-3.2794647
		c-0.399765-1.2424469-0.7646027-2.4954834-1.1074371-3.7545013L67.5171661,184.3539429z"/>
	
		<radialGradient id="SVGID_24_" cx="232.2307434" cy="296.6429443" r="53.3387527" gradientTransform="matrix(1.8580981 0 0 1.8460374 -269.9501953 -387.4963684)" gradientUnits="userSpaceOnUse">
		<stop  offset="0" style="stop-color:#FFFFFF"/>
		<stop  offset="0.8811881" style="stop-color:#168099"/>
		<stop  offset="1" style="stop-color:#072A33"/>
	</radialGradient>
	<path class="st27" d="M65.3767929,174.4318237c0.2687836,1.6512299,0.5660324,3.2971497,0.9212265,4.9306946l10.1916428-2.2344208
		c-0.2664032-1.2741089-0.4988861-2.5553131-0.707222-3.8410339L65.3767929,174.4318237z"/>
	
		<radialGradient id="SVGID_25_" cx="232.2307434" cy="296.6429443" r="53.3387527" gradientTransform="matrix(1.8580981 0 0 1.8460374 -269.9501953 -387.4963684)" gradientUnits="userSpaceOnUse">
		<stop  offset="0" style="stop-color:#FFFFFF"/>
		<stop  offset="0.8811881" style="stop-color:#168099"/>
		<stop  offset="1" style="stop-color:#072A33"/>
	</radialGradient>
	<path class="st28" d="M64.306778,164.3408203c0.0909576,1.6708221,0.2102585,3.3389435,0.3889923,4.9994202l10.4320679-1.1476898
		c-0.1304169-1.291687-0.2206879-2.5883331-0.2922516-3.8867798L64.306778,164.3408203z"/>
	
		<radialGradient id="SVGID_26_" cx="232.2307434" cy="296.6429443" r="53.3387527" gradientTransform="matrix(1.8580981 0 0 1.8460374 -269.9501953 -387.4963684)" gradientUnits="userSpaceOnUse">
		<stop  offset="0" style="stop-color:#FFFFFF"/>
		<stop  offset="0.8811881" style="stop-color:#168099"/>
		<stop  offset="1" style="stop-color:#072A33"/>
	</radialGradient>
	<path class="st29" d="M64.3091583,154.1927948c-0.0891342,1.672287-0.1525345,3.3443604-0.1525345,5.0132751l10.5446854-0.0351563
		c0.0069199-1.295517,0.071106-2.593277,0.1375656-3.8908234L64.3091583,154.1927948z"/>
	
		<radialGradient id="SVGID_27_" cx="232.2307434" cy="296.6429443" r="53.3387527" gradientTransform="matrix(1.8580981 0 0 1.8460374 -269.9501953 -387.4963684)" gradientUnits="userSpaceOnUse">
		<stop  offset="0" style="stop-color:#FFFFFF"/>
		<stop  offset="0.8811881" style="stop-color:#168099"/>
		<stop  offset="1" style="stop-color:#072A33"/>
	</radialGradient>
	<path class="st30" d="M65.4183044,144.1051636c-0.2685547,1.6544952-0.5033112,3.310791-0.6830673,4.9687653l10.5223465,1.0866241
		c0.1447067-1.2862701,0.3215103-2.5716553,0.5257645-3.8553314L65.4183044,144.1051636z"/>
	
		<radialGradient id="SVGID_28_" cx="232.2307434" cy="296.6429443" r="53.3387527" gradientTransform="matrix(1.8580981 0 0 1.8460374 -269.9501953 -387.4963684)" gradientUnits="userSpaceOnUse">
		<stop  offset="0" style="stop-color:#FFFFFF"/>
		<stop  offset="0.8811881" style="stop-color:#168099"/>
		<stop  offset="1" style="stop-color:#072A33"/>
	</radialGradient>
	<path class="st31" d="M67.6050644,134.1931915c-0.4449081,1.6176453-0.8594208,3.2392426-1.2158661,4.8669128l10.3706055,2.2012939
		c0.2802353-1.2614899,0.6010666-2.5185852,0.9404984-3.7731934L67.6050644,134.1931915z"/>
	
		<radialGradient id="SVGID_29_" cx="232.2307434" cy="296.6429443" r="53.3387527" gradientTransform="matrix(1.8580981 0 0 1.8460374 -269.9501953 -387.4963684)" gradientUnits="userSpaceOnUse">
		<stop  offset="0" style="stop-color:#FFFFFF"/>
		<stop  offset="0.8811881" style="stop-color:#168099"/>
		<stop  offset="1" style="stop-color:#072A33"/>
	</radialGradient>
	<path class="st32" d="M70.828949,124.5635757c-0.6178513,1.5628891-1.2064514,3.1315231-1.7351608,4.7104111l10.0925217,3.2940063
		c0.4126968-1.2240906,0.8600922-2.4419708,1.3324432-3.6551208L70.828949,124.5635757z"/>
	
		<radialGradient id="SVGID_30_" cx="232.2307434" cy="296.6429443" r="53.3387527" gradientTransform="matrix(1.8580981 0 0 1.8460374 -269.9501953 -387.4963684)" gradientUnits="userSpaceOnUse">
		<stop  offset="0" style="stop-color:#FFFFFF"/>
		<stop  offset="0.8811881" style="stop-color:#168099"/>
		<stop  offset="1" style="stop-color:#072A33"/>
	</radialGradient>
	<path class="st33" d="M75.077034,115.3341751c-0.7805939,1.4919052-1.5234299,2.9929428-2.2198715,4.5048981l9.6873093,4.3480606
		c0.5414124-1.1716919,1.1160583-2.3356018,1.7120285-3.4941101L75.077034,115.3341751z"/>
	
		<radialGradient id="SVGID_31_" cx="232.2307434" cy="296.6429443" r="53.3387527" gradientTransform="matrix(1.8580981 0 0 1.8460374 -269.9501953 -387.4963684)" gradientUnits="userSpaceOnUse">
		<stop  offset="0" style="stop-color:#FFFFFF"/>
		<stop  offset="0.8811881" style="stop-color:#168099"/>
		<stop  offset="1" style="stop-color:#072A33"/>
	</radialGradient>
	<path class="st34" d="M80.3409271,106.6434708c-0.9299545,1.3828354-1.8450546,2.7807693-2.7107086,4.2251282l9.1617737,5.3485947
		c0.670929-1.1181641,1.3849487-2.1959991,2.099205-3.2731552L80.3409271,106.6434708z"/>
	
		<radialGradient id="SVGID_32_" cx="232.2307434" cy="296.6429443" r="53.3387527" gradientTransform="matrix(1.8580981 0 0 1.8460374 -269.9501953 -387.4963684)" gradientUnits="userSpaceOnUse">
		<stop  offset="0" style="stop-color:#FFFFFF"/>
		<stop  offset="0.8811881" style="stop-color:#168099"/>
		<stop  offset="1" style="stop-color:#072A33"/>
	</radialGradient>
	<path class="st35" d="M86.4702454,98.5339279c-1.0719452,1.2778244-2.1215439,2.5806656-3.1336136,3.9235077l8.5258865,6.2826538
		c0.7833176-1.039856,1.5880737-2.0572968,2.4116516-3.053894L86.4702454,98.5339279z"/>
	
		<radialGradient id="SVGID_33_" cx="232.2307434" cy="296.6429443" r="53.3387527" gradientTransform="matrix(1.8580981 0 0 1.8460374 -269.9501953 -387.4963684)" gradientUnits="userSpaceOnUse">
		<stop  offset="0" style="stop-color:#FFFFFF"/>
		<stop  offset="0.8811881" style="stop-color:#168099"/>
		<stop  offset="1" style="stop-color:#072A33"/>
	</radialGradient>
	<path class="st36" d="M93.4437866,91.1316376c-1.2034988,1.1591797-2.4023514,2.324791-3.5507355,3.5528107l7.7934875,7.1426926
		c0.8886795-0.9524231,1.8196564-1.8531342,2.7455292-2.7599258L93.4437866,91.1316376z"/>
	
		<radialGradient id="SVGID_34_" cx="232.2307434" cy="296.6429443" r="53.3387527" gradientTransform="matrix(1.8580981 0 0 1.8460374 -269.9501953 -387.4963684)" gradientUnits="userSpaceOnUse">
		<stop  offset="0" style="stop-color:#FFFFFF"/>
		<stop  offset="0.8811881" style="stop-color:#168099"/>
		<stop  offset="1" style="stop-color:#072A33"/>
	</radialGradient>
	<path class="st37" d="M111.3590546,89.9981461c1.0578842-0.7408218,2.1268768-1.4637375,3.2187805-2.148674l-5.1027374-9.171936
		c-1.4186325,0.8681488-2.8024597,1.7952194-4.1709671,2.7475357L111.3590546,89.9981461z"/>
	
		<radialGradient id="SVGID_35_" cx="232.2307434" cy="296.6429443" r="53.3387527" gradientTransform="matrix(1.8580981 0 0 1.8460374 -269.9501953 -387.4963684)" gradientUnits="userSpaceOnUse">
		<stop  offset="0" style="stop-color:#FFFFFF"/>
		<stop  offset="0.8811881" style="stop-color:#168099"/>
		<stop  offset="1" style="stop-color:#072A33"/>
	</radialGradient>
	<path class="st38" d="M101.1536942,84.4887695c-1.3177032,1.0298309-2.6205521,2.0821991-3.8916473,3.1799698l6.9624252,7.9061661
		c0.9836044-0.8535004,1.9880676-1.6777039,3.0030823-2.4862442L101.1536942,84.4887695z"/>
	
		<radialGradient id="SVGID_36_" cx="232.2307434" cy="296.6429443" r="53.3387527" gradientTransform="matrix(1.8580981 0 0 1.8460374 -269.9501953 -387.4963684)" gradientUnits="userSpaceOnUse">
		<stop  offset="0" style="stop-color:#FFFFFF"/>
		<stop  offset="0.8811881" style="stop-color:#168099"/>
		<stop  offset="1" style="stop-color:#072A33"/>
	</radialGradient>
	<path class="st39" d="M74.9231415,203.2413483c0.7752609,1.4836731,1.5808105,2.9530487,2.4355774,4.3973999l8.7238922-5.1714783
		c-0.6566391-1.1403503-1.2564621-2.30867-1.8586655-3.4755096L74.9231415,203.2413483z"/>
</g>
<ellipse class="st2" cx="160.5747681" cy="159.097168" rx="37.5971565" ry="37.3531189"/>
<g>
	
		<radialGradient id="SVGID_37_" cx="220.0278473" cy="289.4745789" r="39.0768051" gradientTransform="matrix(0.8505366 -1.6412808 1.5741498 0.8051928 -503.9349365 274.9291382)" gradientUnits="userSpaceOnUse">
		<stop  offset="0" style="stop-color:#168099"/>
		<stop  offset="0.4851485" style="stop-color:#031114"/>
		<stop  offset="1" style="stop-color:#010708"/>
	</radialGradient>
	<path class="st40" d="M198.0322418,136.0952911v29.8218536l-11.5870209,11.5118103
		c0.2692719,0.450882,0.434433,0.9703369,0.434433,1.5313568c0,1.667984-1.365799,3.0249176-3.0439606,3.0249176
		s-3.0432434-1.3569336-3.0432434-3.0249176c0-1.6665497,1.3650818-3.0234833,3.0432434-3.0234833
		c0.5292358,0,1.0196838,0.1469574,1.4537659,0.3840027l10.9497223-10.8785706v-32.033371
		c-1.0448151-1.4492188-2.1535339-2.8597565-3.3800201-4.1871643v16.233429l-8.8048096,8.7475586
		c0.1576233,0.3921204,0.2502594,0.8171387,0.2502594,1.2645416c0,1.8891449-1.5467682,3.4258728-3.447525,3.4258728
		c-1.9015045,0-3.4482574-1.5367279-3.4482574-3.4258728s1.5467529-3.4258575,3.4482574-3.4258575
		c0.7073059,0,1.3647156,0.2140198,1.9122467,0.5784912l8.2942505-8.2404022v-16.9804764
		c-1.2986603-1.2530365-2.6763-2.4431229-4.1451416-3.5489273c-2.2727509,6.8134613-8.7355194,11.7468872-16.3464966,11.7468872
		c-9.4988251,0-17.2261505-7.676445-17.2261505-17.1136169c0-1.1413956,0.1181335-2.2553177,0.3335571-3.3347244
		c-1.7000732,0.2306137-3.3836212,0.5582504-5.0431213,0.9781036v14.5797195l3.0755615,3.0555878
		c1.1151886,1.1079559,1.17659,2.884552,0.1400299,4.0656281v0.0000916
		c-1.1414032,1.3011932-3.1534729,1.3695984-4.3821106,0.1490173l-4.5670319-4.5372925v-15.4341278
		c-0.8239899,0.3297806-1.6365051,0.6884537-2.4414825,1.0647812v14.5720444l10.7676849,10.6977997
		c0.3425293-0.1108551,0.7012177-0.186203,1.080719-0.186203c1.9424133,0,3.522934,1.5709534,3.522934,3.500061
		c0,1.9305267-1.5805206,3.5014801-3.522934,3.5014801s-3.5222015-1.5709534-3.5222015-3.5014801
		c0-0.5596008,0.145401-1.0816498,0.3813019-1.5514374l-11.8010101-11.7239685v-13.7045135
		c-0.9891663,0.5589676-1.9657593,1.1427231-2.9122009,1.7798996v23.5075912l39.2264862,38.9720459l0.0559998,16.9086914
		c10.5131378-3.4230042,19.7875671-10.6725616,25.4913177-21.089798
		C207.1871033,166.2186432,206.1422882,149.2585907,198.0322418,136.0952911z"/>
	
		<radialGradient id="SVGID_38_" cx="220.0278473" cy="289.4745789" r="39.0768051" gradientTransform="matrix(1.8580981 0 0 1.8460374 -269.9501953 -387.4963684)" gradientUnits="userSpaceOnUse">
		<stop  offset="0" style="stop-color:#168099"/>
		<stop  offset="0.4851485" style="stop-color:#031114"/>
		<stop  offset="1" style="stop-color:#010708"/>
	</radialGradient>
	<path class="st41" d="M131.4169159,148.0424805v-23.3279037c-4.4442368,3.5742569-8.2820358,8.0404739-11.1848984,13.3420181
		c-1.7162247,3.1342468-3.0023117,6.3842468-3.903511,9.6836548l23.6497803,23.4963531v28.2949371
		c9.9268036,4.8312225,20.8481598,5.6941071,30.8712006,3.1498566v-15.4623871L131.4169159,148.0424805z M128.4914398,156.1564331
		c-0.5048218-0.501358-0.5048218-1.3218994,0-1.8233337l2.7782593-2.7603302c0.5048218-0.5014496,1.3306122-0.5014496,1.835434,0
		c0.5044556,0.5014496,0.5044556,1.3218842,0,1.8233337l-2.7786407,2.7603302
		C129.822052,156.6578674,128.9958954,156.6578674,128.4914398,156.1564331z M131.4858551,159.1317596
		c-0.5044556-0.5014496-0.5044556-1.3219757,0-1.8233337l2.7786255-2.7603302c0.5044556-0.5014496,1.3306122-0.5014496,1.8350677,0
		c0.5048065,0.501358,0.5048065,1.3218842,0,1.8233337l-2.7782745,2.7603302
		C132.8164673,159.6332092,131.9906616,159.6332092,131.4858551,159.1317596z M134.4809875,162.1070099
		c-0.5048218-0.501358-0.5048218-1.3218842,0-1.8233337l2.7782593-2.7603302c0.5048218-0.5014496,1.3306122-0.5014496,1.8350677,0
		c0.5048218,0.5014496,0.5048218,1.3219757,0,1.8233337l-2.7782593,2.7603302
		C135.8112335,162.6084595,134.9854431,162.6084595,134.4809875,162.1070099z M139.3108215,165.0823364
		c-0.5048065,0.5014496-1.3306122,0.5014496-1.8354187,0c-0.5044556-0.5014343-0.5044556-1.3218842,0-1.8233337l2.7786255-2.7603149
		c0.5044556-0.5014496,1.330246-0.5014496,1.8350677,0c0.5048065,0.501358,0.5048065,1.3218842,0,1.8233337L139.3108215,165.0823364
		z M140.4701691,168.0576782c-0.5044556-0.5014496-0.5044556-1.3219757,0-1.8234253l2.7786255-2.7603302
		c0.5044556-0.501358,1.3306122-0.501358,1.8350677,0c0.5048218,0.5014496,0.5048218,1.3219757,0,1.8233337l-2.7782593,2.7604218
		C141.8007813,168.5590363,140.9749908,168.5590363,140.4701691,168.0576782z M143.4649506,171.0329285
		c-0.5048218-0.5014496-0.5048218-1.3218842,0-1.8233337l2.7782593-2.7603302c0.5048218-0.5014496,1.3306122-0.5014496,1.835434,0
		c0.5048065,0.5014496,0.5048065,1.3218842,0,1.8233337l-2.7782745,2.7603302
		C144.7955627,171.5343781,143.9697571,171.5343781,143.4649506,171.0329285z M146.4597168,174.008255
		c-0.5048065-0.5014343-0.5048065-1.3219757,0-1.8233337l2.7782745-2.7604065c0.5048218-0.501358,1.3306122-0.501358,1.8354187,0
		c0.5044556,0.5014496,0.5044556,1.3219757,0,1.8234253l-2.7786255,2.7603149
		C147.790329,174.509613,146.9645386,174.509613,146.4597168,174.008255z M149.4544983,176.9835052
		c-0.5048218-0.501358-0.5048218-1.3218842,0-1.8233337l2.7782745-2.7603302c0.5048065-0.5014496,1.3306122-0.5014496,1.8354187,0
		c0.5048218,0.5014496,0.5048218,1.3218842,0,1.8233337l-2.7782745,2.7603302
		C150.7851105,177.4849548,149.9593048,177.4849548,149.4544983,176.9835052z M152.4492645,179.958847
		c-0.5048065-0.5014496-0.5048065-1.3219757,0-1.8233337l2.7782745-2.7603302c0.5048218-0.5014496,1.3306122-0.5014496,1.835434,0
		c0.5044556,0.501358,0.5044556,1.3218842,0,1.8233337l-2.7786407,2.7603302
		C153.7798767,180.4602966,152.9537201,180.4602966,152.4492645,179.958847z M155.444046,182.934082
		c-0.5048218-0.501358-0.5048218-1.3218842,0-1.8233337l2.7782745-2.7603149c0.5048065-0.5014496,1.3306122-0.5014496,1.8354187,0
		c0.5044556,0.5014496,0.5044556,1.3219757,0,1.8233337l-2.7786255,2.7603149
		C156.7746582,183.4355316,155.9488525,183.4355316,155.444046,182.934082z M160.27388,185.9094238
		c-0.5048065,0.5014496-1.3306122,0.5014496-1.8354187,0c-0.5044556-0.5014496-0.5044556-1.3218842,0-1.8233337l2.7786255-2.7603302
		c0.5044556-0.5014496,1.3306122-0.5014496,1.8350677,0c0.5048218,0.501358,0.5048218,1.3218842,0,1.8233337L160.27388,185.9094238z
		 M161.4335938,188.8847656c-0.5048218-0.5014496-0.5048218-1.3219757,0-1.8234253l2.7782745-2.7603302
		c0.5048065-0.501358,1.3306122-0.501358,1.8350677,0c0.5048065,0.5014496,0.5048065,1.3219757,0,1.8233337l-2.7782745,2.7604218
		C162.7638397,189.3861237,161.9380493,189.3861237,161.4335938,188.8847656z M169.0417023,189.0996857l-2.7782745,2.7603149
		c-0.5048065,0.5014496-1.3306122,0.5014496-1.8354187,0c-0.5044556-0.5014343-0.5044556-1.3218842,0-1.8233337l2.7786255-2.7603149
		c0.5044556-0.5014496,1.3302612-0.5014496,1.8350677,0C169.546524,187.7777863,169.546524,188.5982361,169.0417023,189.0996857z"/>
	
		<radialGradient id="SVGID_39_" cx="220.0278473" cy="289.4745789" r="39.0768051" gradientTransform="matrix(1.8580981 0 0 1.8460374 -269.9501953 -387.4963684)" gradientUnits="userSpaceOnUse">
		<stop  offset="0" style="stop-color:#168099"/>
		<stop  offset="0.4851485" style="stop-color:#031114"/>
		<stop  offset="1" style="stop-color:#010708"/>
	</radialGradient>
	<path class="st42" d="M135.2565155,178.6885071l-20.4460449-20.3130646
		c-0.3389359,15.095871,7.0347214,29.8592987,20.4460449,38.4893188V178.6885071z"/>
	
		<radialGradient id="SVGID_40_" cx="220.0278473" cy="289.4745789" r="39.0768051" gradientTransform="matrix(1.8580981 0 0 1.8460374 -269.9501953 -387.4963684)" gradientUnits="userSpaceOnUse">
		<stop  offset="0" style="stop-color:#168099"/>
		<stop  offset="0.4851485" style="stop-color:#031114"/>
		<stop  offset="1" style="stop-color:#010708"/>
	</radialGradient>
	<path class="st43" d="M115.7572708,150.0709229c-0.369812,1.7166748-0.598526,3.4433441-0.7608109,5.1707153l22.0764465,21.9328918
		v20.7749939c0.3734131,0.2166138,0.7266998,0.454895,1.1087341,0.6621552v-26.2621307L115.7572708,150.0709229z"/>
	
		<radialGradient id="SVGID_41_" cx="220.0278473" cy="289.4745789" r="39.0768051" gradientTransform="matrix(1.8580981 0 0 1.8460374 -269.9501953 -387.4963684)" gradientUnits="userSpaceOnUse">
		<stop  offset="0" style="stop-color:#168099"/>
		<stop  offset="0.4851485" style="stop-color:#031114"/>
		<stop  offset="1" style="stop-color:#010708"/>
	</radialGradient>
	<path class="st44" d="M170.5719452,127.3141174c4.6413422,0,8.4576111-3.5530319,8.8500366-8.0649109
		c-5.4477539-2.6418076-11.1927948-4.0871124-16.9252625-4.434288c-0.5170288,1.1190109-0.8132324,2.3587646-0.8132324,3.6684341
		C161.6834869,123.3531799,165.6710052,127.3141174,170.5719452,127.3141174z M170.5722961,116.3226547
		c1.2006531,0,2.1740112,0.9671326,2.1740112,2.1601563c0,1.1929398-0.9733582,2.1600723-2.1740112,2.1600723
		c-1.2009888,0-2.1743622-0.9671326-2.1743622-2.1600723C168.397934,117.2897873,169.3713074,116.3226547,170.5722961,116.3226547z"
		/>
	
		<radialGradient id="SVGID_42_" cx="220.0278473" cy="289.4745789" r="39.0768051" gradientTransform="matrix(1.8580981 0 0 1.8460374 -269.9501953 -387.4963684)" gradientUnits="userSpaceOnUse">
		<stop  offset="0" style="stop-color:#168099"/>
		<stop  offset="0.4851485" style="stop-color:#031114"/>
		<stop  offset="1" style="stop-color:#010708"/>
	</radialGradient>
	<path class="st45" d="M170.5719452,132.6747894c6.6304321,0,12.2034912-4.5170441,13.8069763-10.6110306
		c-0.7166443-0.4658661-1.4458618-0.9188919-2.1966095-1.3486404c-1.0530853,5.4162292-5.8556366,9.5211792-11.6103668,9.5211792
		c-6.5230865,0-11.8297424-5.2722015-11.8297424-11.7529449c0-1.312439,0.2269135-2.5709152,0.6283264-3.7505646
		c-0.8652954,0.0076675-1.7277069,0.0506516-2.5886993,0.1076355c-0.3123627,1.1648483-0.494751,2.3816833-0.494751,3.6429291
		C156.2870789,126.3081894,162.6952667,132.6747894,170.5719452,132.6747894z"/>
</g>
<g>
	<g>
		
			<radialGradient id="SVGID_43_" cx="216.3771362" cy="282.564209" r="10.8029957" gradientTransform="matrix(1.8580981 0 0 1.8460374 -269.9501953 -387.4963684)" gradientUnits="userSpaceOnUse">
			<stop  offset="0.1435644" style="stop-color:#FFFFFF;stop-opacity:0.5"/>
			<stop  offset="0.9653465" style="stop-color:#5AAEC2;stop-opacity:0.5"/>
		</radialGradient>
		<path class="st46" d="M149.1012115,149.0822754c-0.1979065-0.4374084-0.3138123-0.9186249-0.3138123-1.4284821
			c0-0.5595245,0.145401-1.081665,0.3812866-1.5513916l-11.8009186-11.7239838v-9.4208298
			c-0.1207886-0.0023651-0.2381592-0.0163345-0.3596191-0.0163345c-0.8707581,0-1.7190552,0.0790939-2.5526276,0.1979599v20.8221207
			l7.4007568,7.352829C144.6904907,152.5162048,147.1767578,151.0283661,149.1012115,149.0822754z"/>
		
			<radialGradient id="SVGID_44_" cx="216.3771362" cy="282.564209" r="10.8029957" gradientTransform="matrix(1.8580981 0 0 1.8460374 -269.9501953 -387.4963684)" gradientUnits="userSpaceOnUse">
			<stop  offset="0.1435644" style="stop-color:#FFFFFF;stop-opacity:0.5"/>
			<stop  offset="0.9653465" style="stop-color:#5AAEC2;stop-opacity:0.5"/>
		</radialGradient>
		<path class="st47" d="M152.1733551,134.4394836c-0.7845764-1.9069977-1.9929504-3.6266022-3.5371246-5.0605927v1.3275146
			l3.0755463,3.0555725C151.9134216,133.9623108,152.0408936,134.2028656,152.1733551,134.4394836z"/>
		
			<radialGradient id="SVGID_45_" cx="216.3771362" cy="282.564209" r="10.8029957" gradientTransform="matrix(1.8580981 0 0 1.8460374 -269.9501953 -387.4963684)" gradientUnits="userSpaceOnUse">
			<stop  offset="0.1435644" style="stop-color:#FFFFFF;stop-opacity:0.5"/>
			<stop  offset="0.9653465" style="stop-color:#5AAEC2;stop-opacity:0.5"/>
		</radialGradient>
		<path class="st48" d="M140.4612274,125.2806244v8.3615875l10.7676544,10.6977539
			c0.3417053-0.1105347,0.6991577-0.1855774,1.0777283-0.1860199c0.5617065-1.4741058,0.8809662-3.0489349,0.8809662-4.6938477
			c0-1.5259399-0.2653809-2.9955292-0.7518005-4.3771362c0.2598267,0.934967,0.1002655,1.9650269-0.5839386,2.7447205
			c-1.1413574,1.3012695-3.1534576,1.3696594-4.3821411,0.1490631l-4.5669861-4.5372314v-7.4897232
			C142.1158752,125.6730652,141.3026123,125.4449005,140.4612274,125.2806244z"/>
	</g>
	
		<radialGradient id="SVGID_46_" cx="216.3771362" cy="282.564209" r="10.8029957" gradientTransform="matrix(1.8580981 0 0 1.8460374 -269.9501953 -387.4963684)" gradientUnits="userSpaceOnUse">
		<stop  offset="0.1435644" style="stop-color:#FFFFFF;stop-opacity:0.5"/>
		<stop  offset="0.9653465" style="stop-color:#5AAEC2;stop-opacity:0.5"/>
	</radialGradient>
	<path class="st49" d="M131.4169464,125.8500748c-0.8399048,0.2779617-1.6482849,0.6108017-2.4160614,1.0044785
		c-3.0021744,2.7899017-5.646431,6.0357971-7.847702,9.7035217c-0.2120743,0.9377899-0.3245773,1.90802-0.3245773,2.9020233
		c0,5.8375854,3.8478622,10.8569489,9.3840561,13.1628113l1.0570831-1.0502319c0.5047913-0.5013885,1.3306274-0.5013885,1.8354187,0
		c0.5044403,0.5015106,0.5044403,1.3220062,0,1.8233948l-0.11409,0.1133575
		c1.2867432,0.2955322,2.6277008,0.4694977,4.0170746,0.4694977c0.1240692,0,0.2439423-0.0141907,0.3673248-0.0166779
		l-5.9585266-5.9198456V125.8500748z"/>
</g>
<radialGradient id="SVGID_47_" cx="228.2720795" cy="284.2938538" r="2.1877918" gradientTransform="matrix(1.8580981 0 0 1.8460374 -269.9501953 -387.4963684)" gradientUnits="userSpaceOnUse">
	<stop  offset="0.1435644" style="stop-color:#FFFFFF;stop-opacity:0.5"/>
	<stop  offset="0.9653465" style="stop-color:#5AAEC2;stop-opacity:0.5"/>
</radialGradient>
<path class="st50" d="M152.3323212,136.9056244c-0.0395508,0.3776855-0.1624298,0.7496796-0.4312286,1.0560303
	c-0.089325,0.1018524-0.1874237,0.1911774-0.2915344,0.2693481c-0.0299988,0.149292-0.0601349,0.2987976-0.0601349,0.454483
	c0,1.6573639,1.7628021,3.0008698,3.9373322,3.0008698c2.1745453,0,3.9373474-1.3435059,3.9373474-3.0008698
	c0-1.6572723-1.7628021-3.0008698-3.9373474-3.0008698C154.1901093,135.6846161,153.0497284,136.1685486,152.3323212,136.9056244z"
	/>
<radialGradient id="SVGID_48_" cx="237.1999817" cy="285.7686768" r="3.0818713" gradientTransform="matrix(1.8580981 0 0 1.8460374 -269.9501953 -387.4963684)" gradientUnits="userSpaceOnUse">
	<stop  offset="0.1435644" style="stop-color:#FFFFFF;stop-opacity:0.5"/>
	<stop  offset="0.9653465" style="stop-color:#5AAEC2;stop-opacity:0.5"/>
</radialGradient>
<ellipse class="st51" cx="172.6960449" cy="141.3640289" rx="5.0855145" ry="3.5737231"/>
<g>
	
		<radialGradient id="SVGID_49_" cx="232.6421967" cy="295.1517944" r="58.3792877" gradientTransform="matrix(1.8580981 0 0 1.8460374 -269.9501953 -387.4963684)" gradientUnits="userSpaceOnUse">
		<stop  offset="0.8564357" style="stop-color:#072A33"/>
		<stop  offset="1" style="stop-color:#031114"/>
	</radialGradient>
	<path class="st52" d="M60.2315292,209.9539642c1.0373535,1.9913788,2.1319809,3.9558411,3.2920456,5.8861542l10.1624908-6.0241852
		c-0.9249649-1.5785522-1.796402-3.1842499-2.6313171-4.8070831L60.2315292,209.9539642z"/>
	
		<radialGradient id="SVGID_50_" cx="232.6421967" cy="295.1517944" r="58.3792877" gradientTransform="matrix(1.8580981 0 0 1.8460374 -269.9501953 -387.4963684)" gradientUnits="userSpaceOnUse">
		<stop  offset="0.8564357" style="stop-color:#072A33"/>
		<stop  offset="1" style="stop-color:#031114"/>
	</radialGradient>
	<path class="st53" d="M113.7789993,71.138504c1.6837997-0.7218399,3.3791199-1.4137726,5.0967102-2.0425415l-3.6592255-11.559906
		c-2.1339493,0.7535248-4.2394562,1.5909309-6.3278503,2.4733696L113.7789993,71.138504z"/>
	
		<radialGradient id="SVGID_51_" cx="232.6421967" cy="295.1517944" r="58.3792877" gradientTransform="matrix(1.8580981 0 0 1.8460374 -269.9501953 -387.4963684)" gradientUnits="userSpaceOnUse">
		<stop  offset="0.8564357" style="stop-color:#072A33"/>
		<stop  offset="1" style="stop-color:#031114"/>
	</radialGradient>
	<path class="st54" d="M214,245.5236664l-3.5192108-5.5857697c-27.0621796,16.7906799-61.8381348,19.6424255-92.2897797,5.0157623
		l-4.5939789,8.3898773h0.0001144l-2.9518204,5.3908386c35.6046295,17.1286926,76.2997437,13.7354431,107.892395-6.0085144
		L214,245.5236664z"/>
	
		<radialGradient id="SVGID_52_" cx="232.6421967" cy="295.1517944" r="58.3792877" gradientTransform="matrix(1.8580981 0 0 1.8460374 -269.9501953 -387.4963684)" gradientUnits="userSpaceOnUse">
		<stop  offset="0.8564357" style="stop-color:#072A33"/>
		<stop  offset="1" style="stop-color:#031114"/>
	</radialGradient>
	<path class="st55" d="M100.2142105,253.0218201c1.8485718,1.1419373,3.7288971,2.2506409,5.6657028,3.2973938
		c0.0526199,0.0283813,0.1059189,0.0539551,0.1585464,0.0822449l5.3336334-9.7408295
		c-1.6251526-0.9006042-3.2082291-1.8473969-4.7630768-2.8237L100.2142105,253.0218201z"/>
	
		<radialGradient id="SVGID_53_" cx="232.6421967" cy="295.1517944" r="58.3792877" gradientTransform="matrix(1.8580981 0 0 1.8460374 -269.9501953 -387.4963684)" gradientUnits="userSpaceOnUse">
		<stop  offset="0.8564357" style="stop-color:#072A33"/>
		<stop  offset="1" style="stop-color:#031114"/>
	</radialGradient>
	<path class="st56" d="M90.4502335,246.2310028c1.7664642,1.3705597,3.564682,2.7119293,5.431282,3.9870605l6.4313354-9.2372894
		c-1.5162888-1.0643158-2.9830093-2.1762848-4.4241028-3.3119202L90.4502335,246.2310028z"/>
	
		<radialGradient id="SVGID_54_" cx="232.6421967" cy="295.1517944" r="58.3792877" gradientTransform="matrix(1.8580981 0 0 1.8460374 -269.9501953 -387.4963684)" gradientUnits="userSpaceOnUse">
		<stop  offset="0.8564357" style="stop-color:#072A33"/>
		<stop  offset="1" style="stop-color:#031114"/>
	</radialGradient>
	<path class="st57" d="M89.8941879,230.6092072l-8.4182587,7.8197479c1.6112061,1.5544281,3.2563171,3.081604,4.9740143,4.5473785
		l7.4773026-8.6067657C92.5383224,233.1532593,91.2037277,231.8913116,89.8941879,230.6092072z"/>
	
		<radialGradient id="SVGID_55_" cx="232.6421967" cy="295.1517944" r="58.3792877" gradientTransform="matrix(1.8580981 0 0 1.8460374 -269.9501953 -387.4963684)" gradientUnits="userSpaceOnUse">
		<stop  offset="0.8564357" style="stop-color:#072A33"/>
		<stop  offset="1" style="stop-color:#031114"/>
	</radialGradient>
	<path class="st58" d="M73.3931351,229.7102966c1.4358749,1.7206421,2.910759,3.414566,4.4590225,5.0547485l8.4581833-7.8568115
		c-1.2461395-1.353775-2.4358063-2.7485504-3.5985947-4.1615906L73.3931351,229.7102966z"/>
	
		<radialGradient id="SVGID_56_" cx="232.6421967" cy="295.1517944" r="58.3792877" gradientTransform="matrix(1.8580981 0 0 1.8460374 -269.9501953 -387.4963684)" gradientUnits="userSpaceOnUse">
		<stop  offset="0.8564357" style="stop-color:#072A33"/>
		<stop  offset="1" style="stop-color:#031114"/>
	</radialGradient>
	<path class="st59" d="M66.2874756,220.1814117c1.2436447,1.8666687,2.5341263,3.7066193,3.8954926,5.502182l9.3578568-6.9929504
		c-1.0906601-1.4747772-2.125061-2.9841614-3.1288528-4.5108795L66.2874756,220.1814117z"/>
	
		<radialGradient id="SVGID_57_" cx="232.6421967" cy="295.1517944" r="58.3792877" gradientTransform="matrix(1.8580981 0 0 1.8460374 -269.9501953 -387.4963684)" gradientUnits="userSpaceOnUse">
		<stop  offset="0.8564357" style="stop-color:#072A33"/>
		<stop  offset="1" style="stop-color:#031114"/>
	</radialGradient>
	<path class="st60" d="M55.3314514,199.1274261c0.8190422,2.0926666,1.6915016,4.1655273,2.6376762,6.2079468l10.8532677-4.9587402
		c-0.7505417-1.6638489-1.4508438-3.3485413-2.1085052-5.0485535L55.3314514,199.1274261z"/>
	
		<radialGradient id="SVGID_58_" cx="232.6421967" cy="295.1517944" r="58.3792877" gradientTransform="matrix(1.8580981 0 0 1.8460374 -269.9501953 -387.4963684)" gradientUnits="userSpaceOnUse">
		<stop  offset="0.8564357" style="stop-color:#072A33"/>
		<stop  offset="1" style="stop-color:#031114"/>
	</radialGradient>
	<path class="st61" d="M51.6286392,187.8374481c0.5912018,2.1698608,1.2258415,4.3277893,1.9479179,6.4585419l11.4175987-3.8111725
		c-0.5692062-1.730423-1.0802269-3.4785614-1.5541649-5.2369385L51.6286392,187.8374481z"/>
	
		<radialGradient id="SVGID_59_" cx="232.6421967" cy="295.1517944" r="58.3792877" gradientTransform="matrix(1.8580981 0 0 1.8460374 -269.9501953 -387.4963684)" gradientUnits="userSpaceOnUse">
		<stop  offset="0.8564357" style="stop-color:#072A33"/>
		<stop  offset="1" style="stop-color:#031114"/>
	</radialGradient>
	<path class="st62" d="M49.141571,176.217804c0.3559914,2.2229309,0.7546272,4.4380798,1.2446671,6.6333008l11.8476448-2.5975647
		c-0.3825302-1.7779846-0.6988258-3.5700531-0.9840508-5.3677521L49.141571,176.217804z"/>
	
		<radialGradient id="SVGID_60_" cx="232.6421967" cy="295.1517944" r="58.3792877" gradientTransform="matrix(1.8580981 0 0 1.8460374 -269.9501953 -387.4963684)" gradientUnits="userSpaceOnUse">
		<stop  offset="0.8564357" style="stop-color:#072A33"/>
		<stop  offset="1" style="stop-color:#031114"/>
	</radialGradient>
	<path class="st63" d="M47.9141426,164.3955688c0.1154518,2.2510986,0.2822762,4.4972382,0.5342712,6.7319946l12.1323013-1.3347168
		c-0.1918869-1.8061523-0.3178864-3.620636-0.410881-5.4381714L47.9141426,164.3955688z"/>
	
		<radialGradient id="SVGID_61_" cx="232.6421967" cy="295.1517944" r="58.3792877" gradientTransform="matrix(1.8580981 0 0 1.8460374 -269.9501953 -387.4963684)" gradientUnits="userSpaceOnUse">
		<stop  offset="0.8564357" style="stop-color:#072A33"/>
		<stop  offset="1" style="stop-color:#031114"/>
	</radialGradient>
	<path class="st64" d="M47.9377327,152.502243c-0.1287193,2.2549286-0.1875801,4.5088348-0.177372,6.7585907l12.2691841-0.0409088
		c0.0012474-1.8150482,0.067482-3.6331482,0.1690941-5.4515686L47.9377327,152.502243z"/>
	
		<radialGradient id="SVGID_62_" cx="232.6421967" cy="295.1517944" r="58.3792877" gradientTransform="matrix(1.8580981 0 0 1.8460374 -269.9501953 -387.4963684)" gradientUnits="userSpaceOnUse">
		<stop  offset="0.8564357" style="stop-color:#072A33"/>
		<stop  offset="1" style="stop-color:#031114"/>
	</radialGradient>
	<path class="st65" d="M49.2987556,140.6835022c-0.37323,2.230484-0.7017746,4.4636536-0.935173,6.6998901l12.273838,1.2674561
		c0.1955185-1.8025513,0.455677-3.602951,0.7513351-5.4011078L49.2987556,140.6835022z"/>
	
		<radialGradient id="SVGID_63_" cx="232.6421967" cy="295.1517944" r="58.3792877" gradientTransform="matrix(1.8580981 0 0 1.8460374 -269.9501953 -387.4963684)" gradientUnits="userSpaceOnUse">
		<stop  offset="0.8564357" style="stop-color:#072A33"/>
		<stop  offset="1" style="stop-color:#031114"/>
	</radialGradient>
	<path class="st66" d="M51.9088745,129.070282c-0.6137733,2.1812286-1.1701584,4.3700256-1.6451187,6.5670319l12.0962372,2.5675964
		c0.3867264-1.7699738,0.8375282-3.5330811,1.3241692-5.2913513L51.9088745,129.070282z"/>
	
		<radialGradient id="SVGID_64_" cx="232.6421967" cy="295.1517944" r="58.3792877" gradientTransform="matrix(1.8580981 0 0 1.8460374 -269.9501953 -387.4963684)" gradientUnits="userSpaceOnUse">
		<stop  offset="0.8564357" style="stop-color:#072A33"/>
		<stop  offset="1" style="stop-color:#031114"/>
	</radialGradient>
	<path class="st67" d="M55.7694397,117.8041992c-0.8481903,2.1054077-1.6519203,4.2196121-2.3609543,6.3502579l11.7657623,3.8402405
		c0.5735092-1.7172546,1.2155228-3.4222183,1.8898544-5.1208801L55.7694397,117.8041992z"/>
	
		<radialGradient id="SVGID_65_" cx="232.6421967" cy="295.1517944" r="58.3792877" gradientTransform="matrix(1.8580981 0 0 1.8460374 -269.9501953 -387.4963684)" gradientUnits="userSpaceOnUse">
		<stop  offset="0.8564357" style="stop-color:#072A33"/>
		<stop  offset="1" style="stop-color:#031114"/>
	</radialGradient>
	<path class="st68" d="M60.8112755,107.0059357c-1.0713768,2.0084-2.0707397,4.0351639-3.0072746,6.0764694l11.2878571,5.0665741
		c0.7557602-1.6450272,1.5630035-3.2777786,2.4148254-4.899147L60.8112755,107.0059357z"/>
	
		<radialGradient id="SVGID_66_" cx="232.6421967" cy="295.1517944" r="58.3792877" gradientTransform="matrix(1.8580981 0 0 1.8460374 -269.9501953 -387.4963684)" gradientUnits="userSpaceOnUse">
		<stop  offset="0.8564357" style="stop-color:#072A33"/>
		<stop  offset="1" style="stop-color:#031114"/>
	</radialGradient>
	<path class="st69" d="M67.046524,96.8468704c-1.2672424,1.8560715-2.4909286,3.7554016-3.657795,5.7078018l10.6741982,6.2313919
		c0.9401627-1.5720215,1.9317017-3.0961456,2.9449005-4.5987549L67.046524,96.8468704z"/>
	
		<radialGradient id="SVGID_67_" cx="232.6421967" cy="295.1517944" r="58.3792877" gradientTransform="matrix(1.8580981 0 0 1.8460374 -269.9501953 -387.4963684)" gradientUnits="userSpaceOnUse">
		<stop  offset="0.8564357" style="stop-color:#072A33"/>
		<stop  offset="1" style="stop-color:#031114"/>
	</radialGradient>
	<path class="st70" d="M74.3340912,87.4112854c-1.4600296,1.7133026-2.8908081,3.4596252-4.2574997,5.2749023l9.9321594,7.3189163
		c1.099617-1.4622726,2.243576-2.8776779,3.4112396-4.2667084L74.3340912,87.4112854z"/>
	
		<radialGradient id="SVGID_68_" cx="232.6421967" cy="295.1517944" r="58.3792877" gradientTransform="matrix(1.8580981 0 0 1.8460374 -269.9501953 -387.4963684)" gradientUnits="userSpaceOnUse">
		<stop  offset="0.8564357" style="stop-color:#072A33"/>
		<stop  offset="1" style="stop-color:#031114"/>
	</radialGradient>
	<path class="st71" d="M82.5526352,78.7640686c-1.6368332,1.5499344-3.2394257,3.1447067-4.7902985,4.8026962l9.0771713,8.3192215
		c1.2478409-1.3379974,2.549324-2.6104126,3.8597717-3.8708878L82.5526352,78.7640686z"/>
	
		<radialGradient id="SVGID_69_" cx="232.6421967" cy="295.1517944" r="58.3792877" gradientTransform="matrix(1.8580981 0 0 1.8460374 -269.9501953 -387.4963684)" gradientUnits="userSpaceOnUse">
		<stop  offset="0.8564357" style="stop-color:#072A33"/>
		<stop  offset="1" style="stop-color:#031114"/>
	</radialGradient>
	<path class="st72" d="M102.9003067,78.021553c1.4994965-1.0488739,3.0166855-2.0690231,4.5739136-3.0217819l-5.9319916-10.6624908
		c-1.9405441,1.16008-3.8327789,2.4050064-5.7008591,3.6895981L102.9003067,78.021553z"/>
	
		<radialGradient id="SVGID_70_" cx="232.6421967" cy="295.1517944" r="58.3792877" gradientTransform="matrix(1.8580981 0 0 1.8460374 -269.9501953 -387.4963684)" gradientUnits="userSpaceOnUse">
		<stop  offset="0.8564357" style="stop-color:#072A33"/>
		<stop  offset="1" style="stop-color:#031114"/>
	</radialGradient>
	<path class="st73" d="M91.6620102,71.0497818c-1.7978745,1.3666153-3.5709152,2.7709732-5.2897491,4.2530746l8.1468735,9.2511444
		c1.3815536-1.1974869,2.7992783-2.343483,4.2337952-3.4643555L91.6620102,71.0497818z"/>
</g>
<g>
	
		<linearGradient id="SVGID_71_" gradientUnits="userSpaceOnUse" x1="388.2027283" y1="88.8033371" x2="510.9725037" y2="216.1626434">
		<stop  offset="0" style="stop-color:#FF3100"/>
		<stop  offset="0.6806931" style="stop-color:#AD2100"/>
		<stop  offset="1" style="stop-color:#1A0500"/>
	</linearGradient>
	<path class="st74" d="M430.9907837,133.8865509h25.7711487v25.3433533h-25.7711487V133.8865509z"/>
	
		<linearGradient id="SVGID_72_" gradientUnits="userSpaceOnUse" x1="342.8946228" y1="79.6061935" x2="390.5710754" y2="121.7203979">
		<stop  offset="0" style="stop-color:#168099"/>
		<stop  offset="1" style="stop-color:#031114"/>
	</linearGradient>
	<path class="st75" d="M341.1234436,145.712738l14.1280823-16.7657776
		c9.1571045,7.147995,19.0990295,10.9175873,29.6950684,10.9175873c6.9334106,0,10.5969849-2.3399963,10.5969849-6.2375946
		v-0.2613983c0-3.8975983-3.0094299-5.8481903-15.5679321-8.8371811
		c-19.4918823-4.4185944-34.5354004-9.877388-34.5354004-28.4639511v-0.2595978
		c0-16.8955688,13.473938-29.1129532,35.4517517-29.1129532c15.5670166,0,27.732666,4.1589966,37.6754761,12.0875778
		l-12.690033,17.8059692c-8.372345-5.9797897-17.5294495-8.9678802-25.6395874-8.9678802
		c-6.1485901,0-9.157135,2.468895-9.157135,5.84729v0.2613983c0,4.158989,3.1391907,5.9779892,15.9598694,8.8371811
		c20.9308167,4.5483932,34.0119019,11.3087845,34.0119019,28.3341446v0.259613
		c0,18.5847626-14.7822266,29.6321411-37.0213318,29.6321411
		C367.8099976,160.7893066,352.5042725,155.7199097,341.1234436,145.712738z"/>
	
		<linearGradient id="SVGID_73_" gradientUnits="userSpaceOnUse" x1="470.3525085" y1="85.8484802" x2="518.0357056" y2="127.9686127">
		<stop  offset="0" style="stop-color:#168099"/>
		<stop  offset="1" style="stop-color:#031114"/>
	</linearGradient>
	<path class="st76" d="M470.4962463,68.2521744h46.9632263c11.5115356,0,19.6225586,2.8591919,24.9863281,8.0574799
		c3.6627197,3.7695999,5.8864136,8.5784912,5.8864136,14.8169785v0.2595978c0,10.5263824-6.0170288,16.76577-14.1280518,20.2757645
		c11.1195679,3.6379929,18.1835938,9.8773804,18.1835938,22.224556v0.2595978
		c0,15.5957794-12.8198242,25.0837555-34.6669922,25.0837555h-47.2245178V68.2521744z M523.3458862,96.3240204
		c0-5.0675888-4.0546265-7.7969818-11.5115051-7.7969818h-16.6140137v15.9851685h15.9598694
		c7.7182007,0,12.1656494-2.5995941,12.1656494-7.9267883V96.3240204z M514.581604,122.1901779h-19.3612366v16.7639694h19.6225281
		c7.8488159,0,12.1665649-2.9889984,12.1665649-8.3179932v-0.2595978
		C527.0094604,125.4387665,523.0845947,122.1901779,514.581604,122.1901779z"/>
	
		<linearGradient id="SVGID_74_" gradientUnits="userSpaceOnUse" x1="593.2005005" y1="70.3239822" x2="640.8982544" y2="112.4570313">
		<stop  offset="0" style="stop-color:#168099"/>
		<stop  offset="1" style="stop-color:#031114"/>
	</linearGradient>
	<path class="st77" d="M594.243042,114.0019913v-0.2613983c0-26.5133591,20.4082031-47.3083191,48.1408691-47.3083191
		c18.7070923,0,30.7421265,7.7978897,38.8531494,18.8452682l-19.0990601,14.6862717
		c-5.2331543-6.3691864-11.2510986-10.6570816-20.0153809-10.6570816c-12.8197632,0-21.8462524,10.9184799-21.8462524,24.1742554
		v0.2596054c0,13.6469727,9.0264893,24.3049545,21.8462524,24.3049545c9.5499878,0,15.1751099-4.4185944,20.6695557-11.0473785
		l19.098999,13.5153656c-8.633606,11.8279877-20.2766724,20.5353699-40.4226685,20.5353699
		C615.3054199,161.0489044,594.243042,141.1643372,594.243042,114.0019913z"/>
	<g>
		
			<linearGradient id="SVGID_75_" gradientUnits="userSpaceOnUse" x1="403.4199219" y1="120.3471603" x2="544.3783569" y2="323.1898193">
			<stop  offset="0" style="stop-color:#168099"/>
			<stop  offset="1" style="stop-color:#072A33"/>
		</linearGradient>
		<path class="st78" d="M436.4335327,199.9040222l5.0770874-6.0248566c3.2907104,2.5689545,6.8635559,3.922821,10.6713867,3.922821
			c2.4913635,0,3.8069153-0.8400879,3.8069153-2.2426453v-0.0919342c0-1.4025574-1.0805664-2.1020355-5.5933533-3.1764832
			c-7.0041504-1.5882416-12.410614-3.5496521-12.410614-10.2271271v-0.0937347
			c0-6.0717316,4.8421326-10.4614868,12.7390442-10.4614868c5.5942688,0,9.9664307,1.4945068,13.5383606,4.3428802
			l-4.5590515,6.3980408c-3.0085144-2.14711-6.2992249-3.2215576-9.2142944-3.2215576
			c-2.209198,0-3.2906799,0.8869629-3.2906799,2.1002197v0.09375c0,1.4944916,1.1286621,2.1489105,5.7348938,3.1764832
			c7.5213013,1.6351166,12.2228088,4.063446,12.2228088,10.1802521v0.0937347
			c0,6.6792755-5.3121033,10.6489716-13.3033752,10.6489716
			C446.023407,205.3213501,440.5235291,203.5005493,436.4335327,199.9040222z"/>
		
			<linearGradient id="SVGID_76_" gradientUnits="userSpaceOnUse" x1="427.3903503" y1="103.7691193" x2="568.3807373" y2="306.6577148">
			<stop  offset="0" style="stop-color:#168099"/>
			<stop  offset="1" style="stop-color:#072A33"/>
		</linearGradient>
		<path class="st79" d="M468.4902649,188.5087128v-0.09375c0-9.3870239,7.6147461-17.0001221,17.7689514-17.0001221
			c10.1533203,0,17.6746216,7.5193481,17.6746216,16.9063873v0.0937347c0,9.3870239-7.6147461,17.0001373-17.7689819,17.0001373
			C476.0115662,205.4151001,468.4902649,197.8957367,468.4902649,188.5087128z M494.579834,188.5087128v-0.09375
			c0-4.7647247-3.3850403-8.8263702-8.414978-8.8263702c-5.0299072,0-8.3668823,4.0147705-8.3668823,8.7326355v0.0937347
			c0,4.7160492,3.4313354,8.8263702,8.4612427,8.8263702C491.2419739,197.241333,494.579834,193.224762,494.579834,188.5087128z"/>
		
			<linearGradient id="SVGID_77_" gradientUnits="userSpaceOnUse" x1="451.5015564" y1="87.2650528" x2="592.3244019" y2="289.9125671">
			<stop  offset="0" style="stop-color:#168099"/>
			<stop  offset="1" style="stop-color:#072A33"/>
		</linearGradient>
		<path class="st80" d="M508.6298828,172.0692444h26.324585v7.9394073h-17.2046509v5.5579376h15.5597534v7.5175476h-15.5597534
			v11.6765594h-9.1199341V172.0692444z"/>
		
			<linearGradient id="SVGID_78_" gradientUnits="userSpaceOnUse" x1="475.0166321" y1="70.9156189" x2="615.9536743" y2="273.7275085">
			<stop  offset="0" style="stop-color:#168099"/>
			<stop  offset="1" style="stop-color:#072A33"/>
		</linearGradient>
		<path class="st81" d="M547.1727295,180.0086517h-9.8248901v-7.9394073h28.8168945v7.9394073h-9.8720703v24.7520447h-9.1199341
			V180.0086517z"/>
		
			<linearGradient id="SVGID_79_" gradientUnits="userSpaceOnUse" x1="503.4637451" y1="51.061161" x2="644.5579834" y2="254.0991974">
			<stop  offset="0" style="stop-color:#168099"/>
			<stop  offset="1" style="stop-color:#072A33"/>
		</linearGradient>
		<path class="st82" d="M567.9456787,172.0692444h9.637085l5.7348633,18.9146729l6.3463745-19.0084229h7.8497314
			l6.3464355,19.0084229l5.7348633-18.9146729h9.4483643l-10.9998169,32.9258118h-7.9440918l-6.5813599-18.8227386
			l-6.6276245,18.8227386h-7.9450073L567.9456787,172.0692444z"/>
		
			<linearGradient id="SVGID_80_" gradientUnits="userSpaceOnUse" x1="522.7625732" y1="37.9833641" x2="663.734314" y2="240.8450775">
			<stop  offset="0" style="stop-color:#168099"/>
			<stop  offset="1" style="stop-color:#072A33"/>
		</linearGradient>
		<path class="st83" d="M629.8036499,171.8348846h8.7905884l14.0083008,32.9258118h-9.7776489l-2.350769-5.8842468h-12.7390747
			l-2.3497925,5.8842468h-9.5427246L629.8036499,171.8348846z M637.7949219,191.8240051l-3.6662598-9.2464142l-3.713501,9.2464142
			H637.7949219z"/>
		
			<linearGradient id="SVGID_81_" gradientUnits="userSpaceOnUse" x1="550.0755005" y1="18.9837494" x2="691.1083984" y2="221.9334869">
			<stop  offset="0" style="stop-color:#168099"/>
			<stop  offset="1" style="stop-color:#072A33"/>
		</linearGradient>
		<path class="st84" d="M655.7943726,172.0692444h15.5597534c5.0299072,0,8.5084229,1.3070068,10.7185059,3.5027771
			c1.927063,1.9145508,2.9141846,4.3897552,2.9141846,7.6112976v0.09375c0,5.0441589-2.6791992,8.3594513-6.769165,10.0883026
			l7.850647,11.3953247h-10.4835815l-6.6276245-9.9008179h-4.0428467v9.9008179h-9.119873V172.0692444z M670.9785156,187.7605591
			c3.0556641,0,4.8883667-1.4944916,4.8883667-3.8759613v-0.0937347c0-2.6158295-1.927063-3.9228363-4.9355469-3.9228363h-6.0170898
			v7.8925323H670.9785156z"/>
		
			<linearGradient id="SVGID_82_" gradientUnits="userSpaceOnUse" x1="573.748291" y1="2.6740906" x2="714.7541504" y2="205.5849152">
			<stop  offset="0" style="stop-color:#168099"/>
			<stop  offset="1" style="stop-color:#072A33"/>
		</linearGradient>
		<path class="st85" d="M689.5894165,172.0692444h26.4661255v7.6581726h-17.4405518v4.9972839h15.7947388v7.1461792h-15.7947388
			v5.1829681h17.6755371v7.7068481h-26.7011108V172.0692444z"/>
	</g>
	
		<linearGradient id="SVGID_83_" gradientUnits="userSpaceOnUse" x1="509.1490479" y1="78.7055893" x2="631.9188232" y2="206.0648956">
		<stop  offset="0" style="stop-color:#FF3100"/>
		<stop  offset="0.6806931" style="stop-color:#AD2100"/>
		<stop  offset="1" style="stop-color:#1A0500"/>
	</linearGradient>
	<path class="st86" d="M561.6709595,133.8865509h25.7711182v25.3433533h-25.7711182V133.8865509z"/>
	
		<linearGradient id="SVGID_84_" gradientUnits="userSpaceOnUse" x1="632.3555298" y1="72.8527756" x2="755.1253052" y2="200.2120819">
		<stop  offset="0" style="stop-color:#FF3100"/>
		<stop  offset="0.6806931" style="stop-color:#AD2100"/>
		<stop  offset="1" style="stop-color:#1A0500"/>
	</linearGradient>
	<path class="st87" d="M690.5193481,133.8865509h25.7711792v25.3433533h-25.7711792V133.8865509z"/>
</g>
</svg>
