<?xml version="1.0" encoding="utf-8"?>
<!-- Generator: Adobe Illustrator 22.0.0, SVG Export Plug-In . SVG Version: 6.00 Build 0)  -->
<svg version="1.1" id="Calque_1" xmlns="http://www.w3.org/2000/svg" xmlns:xlink="http://www.w3.org/1999/xlink" x="0px" y="0px"
	 viewBox="0 0 368.2411194 300.6809998" style="enable-background:new 0 0 368.2411194 300.6809998;" xml:space="preserve">
<style type="text/css">
	.st0{fill:#031114;}
	.st1{fill:#FFFFFF;}
	.st2{fill:#168099;}
	.st3{fill:#01101D;}
	.st4{fill:#BF2500;}
	.st5{fill:#072A33;}
	.st6{fill:#0F5566;}
	.st7{fill:#F63F10;}
	.st8{fill:none;}
	.st9{fill:#0180AA;}
	.st10{fill:#02334C;}
</style>
<path class="st0" d="M75.0795364,223.3644257c1.1410446,2.2126465,2.3450851,4.3953705,3.621109,6.5401611l11.1783218-6.6935272
	c-1.0174255-1.753952-1.9759674-3.5380707-2.8943481-5.341217L75.0795364,223.3644257z"/>
<ellipse class="st1" cx="185.9811096" cy="167.6546783" rx="92.0961456" ry="92.4260712"/>
<path class="st2" d="M136.8735809,83.4631577c1.428009-0.2033157,2.8581085-0.3853836,4.2915649-0.5234756l-0.4104156-11.5801926
	c-1.8443756,0.1544418-3.6843567,0.3755112-5.5214539,0.627243L136.8735809,83.4631577z"/>
<path class="st0" d="M133.9795074,69.1250763c1.8521118-0.8020477,3.7168884-1.5708542,5.6061707-2.2694931l-4.0249939-12.8443336
	c-2.3472595,0.8372498-4.6632233,1.7677002-6.9603729,2.748188L133.9795074,69.1250763z"/>
<path class="st2" d="M149.7894745,73.6760406c1.3157349-0.5992355,2.6429749-1.1717224,3.9833832-1.7101822l-3.5935364-10.937458
	c-1.7293243,0.6667213-3.4354706,1.3935699-5.12883,2.1510887L149.7894745,73.6760406z"/>
<path class="st3" d="M141.5100555,54.0188637c1.5497131-1.2974129,3.1216431-2.5666656,4.7380676-3.7767181l-7.4293518-11.107502
	c-2.0159912,1.4694862-3.9704132,3.0227394-5.8955536,4.613266L141.5100555,54.0188637z"/>
<path class="st2" d="M158.1697845,76.8703156c23.4092865-7.1073914,49.5233612-5.2038345,72.6533356,7.4237671l5.0102997-9.2430038
	c-0.3453674-0.193512-0.6760254-0.403183-1.0244446-0.5934296c-25.4675751-13.9040375-54.1324158-16.1517181-79.9128723-8.5532608
	L158.1697845,76.8703156z"/>
<path class="st1" d="M217.5930023,110.9839096c-31.5350189-17.2165146-71.006134-5.5174255-88.1611938,26.1305466
	s-5.497818,71.2604523,26.0371857,88.4769745s71.0060883,5.5175171,88.1611481-26.1304626
	S249.128006,128.2004242,217.5930023,110.9839096z M158.4543304,215.3174286
	c-26.4381409-14.4338837-36.245575-47.7625122-21.8639679-74.2939758
	c14.3823547-26.5328445,47.5917053-36.3764877,74.0298462-21.9426041s36.2462616,47.762886,21.8639069,74.2957382
	C218.1025085,219.9080505,184.8924713,229.7513123,158.4543304,215.3174286z"/>
<g>
	<path class="st4" d="M150.0726471,230.7815399c-34.9341431-19.0722656-47.8944855-63.1112213-28.8902969-98.1705017
		s62.8864975-48.0657501,97.8206253-28.9934769s47.893631,63.1114731,28.8894348,98.1707535
		S185.0067749,249.8538055,150.0726471,230.7815399z M214.0469971,112.7604523
		c-29.9108276-16.3297958-67.4828949-5.1936417-83.7543945,24.8243256
		c-16.2711945,30.0174103-5.1747971,67.7240753,24.7360229,84.0538635
		c29.9102631,16.3294983,67.4823303,5.1933441,83.7535248-24.8240662
		C255.0536499,166.7966003,243.9572601,129.0899353,214.0469971,112.7604523z"/>
</g>
<path class="st5" d="M141.6369171,249.7397614c-44.9241638-24.5263214-61.5896988-81.1594543-37.1513138-126.2438507
	c24.4391403-45.0857849,80.8698044-61.8120995,125.7939682-37.2857895s61.5903931,81.1598282,37.1512451,126.2456131
	C242.9924164,257.5401306,186.5610657,274.2660828,141.6369171,249.7397614z M227.9605103,90.4883575
	c-42.5734253-23.2429352-96.0516052-7.391716-119.2119446,35.3349152
	c-23.159584,42.725235-7.3660202,96.3953247,35.2073975,119.6382446
	c42.5734253,23.2429504,96.0522919,7.3921051,119.2118835-35.3331451
	C286.328186,167.4017487,270.5339355,113.7312851,227.9605103,90.4883575z"/>
<path class="st6" d="M158.4543152,215.3174438c-26.4381409-14.4338837-36.245575-47.7625122-21.8639679-74.2939758
	c14.3823547-26.5328445,47.5917053-36.3764877,74.0298462-21.9426041s36.2462616,47.762886,21.8639069,74.2957382
	C218.1024933,219.9080658,184.8924561,229.7513275,158.4543152,215.3174438z M209.847168,120.5069427
	c-25.6540985-14.0058365-57.8799896-4.4536819-71.8358307,21.2923126s-4.4380951,58.0862732,21.2159882,72.0921173
	c25.6548004,14.0062103,57.8799438,4.4554443,71.8357849-21.2905579S235.5019531,134.5131531,209.847168,120.5069427z"/>
<path class="st2" d="M235.299408,248.5866699c-26.9127197,16.6138-61.3982391,19.2522278-91.4539185,4.4181671l-5.0231323,9.266861
	c33.4975433,16.2536011,71.7568512,13.0779724,101.5277405-5.5873413L235.299408,248.5866699z"/>
<path class="st0" d="M244.218338,262.8864136l-3.8709869-6.2064209
	c-29.7672577,18.6562805-68.0193481,21.8249207-101.5148926,5.5730591l-5.0531769,9.3220825h0.0001221l-3.2468872,5.9898376
	c39.1636047,19.0318604,83.9265289,15.2615662,118.6771393-6.6761475L244.218338,262.8864136z"/>
<path class="st0" d="M119.0588074,271.2175903c2.0333481,1.2687988,4.1016312,2.5007019,6.2320328,3.6637573
	c0.0578842,0.0315247,0.1165161,0.059967,0.1744003,0.0913696l5.8667755-10.8231201
	c-1.7875977-1.0006714-3.528923-2.0526733-5.2391815-3.1374512L119.0588074,271.2175903z"/>
<path class="st2" d="M135.0152588,248.0670013l-6.0409241,8.7644806c1.5657959,0.9756165,3.1622925,1.9188232,4.7950897,2.8215637
	l5.0388336-9.2958984C137.5182648,249.6217651,136.2577209,248.8538361,135.0152588,248.0670013z"/>
<path class="st0" d="M108.3188477,263.6722412c1.9430313,1.5228271,3.9209976,3.0132446,5.9741821,4.4300537l7.0741959-10.2636414
	c-1.6678467-1.1825867-3.2811813-2.4181061-4.8663254-3.6799164L108.3188477,263.6722412z"/>
<path class="st2" d="M119.7649918,250.3635406c1.4552841,1.1387482,2.9373856,2.2525787,4.4645157,3.3223419l6.0726166-8.8104095
	c-1.1996765-0.8647003-2.3737869-1.7545624-3.5228195-2.6676025L119.7649918,250.3635406z"/>
<path class="st2" d="M119.2419357,235.4913025l-7.9383087,7.4487c1.3262939,1.289856,2.6774139,2.5595551,4.0799255,3.7855682
	l7.0602264-8.2091217C121.3480148,237.5319366,120.2844315,236.5201416,119.2419357,235.4913025z"/>
<path class="st0" d="M107.7072144,246.314682l-9.2597275,8.6885986c1.7722549,1.7271576,3.5818176,3.4240265,5.4712067,5.0526581
	l8.2247238-9.5630798C110.6156616,249.1414032,109.1476517,247.7392578,107.7072144,246.314682z"/>
<path class="st2" d="M103.6846771,234.7418976c1.1810837,1.4259491,2.3876266,2.8343658,3.6491776,4.2024689l7.9862061-7.4937744
	c-0.9801254-1.0917969-1.9232025-2.2105255-2.8476944-3.3421326L103.6846771,234.7418976z"/>
<path class="st0" d="M89.5567474,245.3159027c1.5793991,1.9118042,3.2017212,3.7939606,4.9047394,5.6163788l9.3036499-8.7297821
	c-1.3707047-1.5041962-2.6792831-3.0539551-3.9583054-4.6239929L89.5567474,245.3159027z"/>
<path class="st2" d="M96.9438019,225.6247711c1.035759,1.5673981,2.1008377,3.1179047,3.2230453,4.6329956l8.8356018-6.669632
	c-0.870224-1.2067261-1.6995316-2.4383698-2.5100021-3.6810303L96.9438019,225.6247711z"/>
<path class="st0" d="M81.7408218,234.7282562c1.3679581,2.0740662,2.7874374,4.118454,4.2848816,6.1135254l10.293251-7.7699432
	c-1.1996841-1.6386414-2.3374863-3.3157196-3.4416046-5.012085L81.7408218,234.7282562z"/>
<path class="st2" d="M86.6097565,205.6299133c0.6736298,1.7302856,1.3829346,3.4474182,2.1469955,5.1417847l10.2740402-4.7416687
	c-0.5828094-1.3306732-1.1148529-2.6817474-1.6365356-4.0363312L86.6097565,205.6299133z"/>
<path class="st0" d="M69.6896515,211.3349304c0.9009171,2.3251953,1.8605804,4.6283722,2.9013367,6.8977203l11.9381409-5.5097046
	c-0.8255615-1.8487244-1.595871-3.7205963-2.3192673-5.6094971L69.6896515,211.3349304z"/>
<path class="st2" d="M83.0934372,194.9199524c0.4875031,1.792511,1.0149231,3.5739899,1.5952454,5.3385773l10.8069458-3.6438446
	c-0.4397278-1.3804932-0.8410339-2.7727661-1.2181396-4.1716614L83.0934372,194.9199524z"/>
<path class="st0" d="M65.6167145,198.7905273c0.6502991,2.410965,1.3483734,4.8086395,2.1426315,7.1761627l12.558876-4.2346344
	c-0.6260986-1.9227142-1.1882019-3.8650665-1.7095108-5.8188171L65.6167145,198.7905273z"/>
<path class="st2" d="M80.7391129,183.8953857c0.2956467,1.8347015,0.6226044,3.6635132,1.0133057,5.4785461l11.2103806-2.4826813
	c-0.2930298-1.4156799-0.5487595-2.8392487-0.777916-4.267807L80.7391129,183.8953857z"/>
<path class="st0" d="M62.8810463,185.8798218c0.3915749,2.4699097,0.8300552,4.9311981,1.3690834,7.3703156l13.0319138-2.8861847
	c-0.4207687-1.9755249-0.7686844-3.9667206-1.0824203-5.9641571L62.8810463,185.8798218z"/>
<path class="st2" d="M79.5621414,172.6831665c0.1000443,1.8564758,0.2312775,3.7099457,0.4278717,5.5549011l11.4748383-1.2752075
	c-0.1434555-1.4351959-0.2427521-2.8759155-0.3214645-4.318634L79.5621414,172.6831665z"/>
<path class="st0" d="M61.5309258,172.7440033c0.1269913,2.5012207,0.3104897,4.996933,0.587677,7.4799957l13.3450203-1.4830322
	c-0.2110672-2.0068359-0.3496628-4.022934-0.4519501-6.0424042L61.5309258,172.7440033z"/>
<path class="st2" d="M79.5647583,161.4075775c-0.098053,1.8581085-0.1677856,3.7159729-0.1677856,5.5703125l11.5987167-0.0390625
	c0.0076065-1.4394531,0.0782089-2.881424,0.1513138-4.3231354L79.5647583,161.4075775z"/>
<path class="st0" d="M61.5568733,159.5291901c-0.1415863,2.5054779-0.2063293,5.0098267-0.1951027,7.509552l13.4955902-0.0454559
	c0.0013733-2.0167236,0.0742264-4.0368195,0.185997-6.0572968L61.5568733,159.5291901z"/>
<path class="st2" d="M80.7847672,150.1991119c-0.2953949,1.8383179-0.5536194,3.6786499-0.7513428,5.5208588l11.5741425,1.2073517
	c0.1591721-1.4291992,0.353653-2.8573914,0.5783157-4.2837067L80.7847672,150.1991119z"/>
<path class="st0" d="M63.0539436,146.3972626c-0.4105377,2.4783173-0.7719269,4.9596252-1.0286522,7.4443207l13.5007095,1.4082947
	c0.2150574-2.0028381,0.5012207-4.0032806,0.8264389-6.001236L63.0539436,146.3972626z"/>
<path class="st2" d="M83.1901093,139.1858063c-0.4893723,1.7973938-0.9453201,3.5991669-1.3373947,5.4076843l11.4072266,2.4458923
	c0.3082504-1.4016571,0.6611557-2.7984314,1.0345154-4.1924438L83.1901093,139.1858063z"/>
<path class="st0" d="M65.9249573,133.4936829c-0.6751175,2.4235992-1.2871246,4.8555908-1.8095551,7.2967224l13.3053513,2.8528748
	c0.4253845-1.9666443,0.9212494-3.9256592,1.4565353-5.8792725L65.9249573,133.4936829z"/>
<path class="st2" d="M86.7362518,128.4862366c-0.6796112,1.736557-1.3270416,3.4794769-1.9086075,5.2337952l11.1013489,3.6600037
	c0.453949-1.3600922,0.9460754-2.7132874,1.4656372-4.0612335L86.7362518,128.4862366z"/>
<path class="st0" d="M70.1714249,120.9758301c-0.9329758,2.3393402-1.8170471,4.6884537-2.5969543,7.0558472l12.9418488,4.266922
	c0.6308365-1.9080505,1.3370209-3.8024597,2.0787582-5.6898651L70.1714249,120.9758301z"/>
<path class="st2" d="M91.4089661,118.2313614c-0.8586197,1.6576691-1.675705,3.3254852-2.4417648,5.0054398l10.655632,4.8311768
	c0.5955353-1.3018799,1.227623-2.5951157,1.8831635-3.8823395L91.4089661,118.2313614z"/>
<path class="st0" d="M75.7172318,108.9777679c-1.1784668,2.2315521-2.2777252,4.4835129-3.3078766,6.7516251l12.4161682,5.6295242
	c0.8313065-1.8278122,1.7192459-3.6419754,2.6562042-5.4434891L75.7172318,108.9777679z"/>
<path class="st2" d="M97.199028,108.5750198c-1.0229111,1.5364838-2.02948,3.0897522-2.9816666,4.6945877l10.0775681,5.9428864
	c0.7379913-1.2424088,1.5233917-2.4400024,2.3090363-3.6368408L97.199028,108.5750198z"/>
<path class="st0" d="M82.575737,97.6899185c-1.3939056,2.062294-2.7399063,4.1726608-4.0234146,6.3419952l11.7411728,6.9237671
	c1.0341415-1.7466888,2.1247864-3.4401627,3.2392654-5.109726L82.575737,97.6899185z"/>
<path class="st2" d="M103.9410248,99.5644226c-1.1790924,1.4198074-2.3336105,2.8674088-3.4468384,4.3594513l9.3781128,6.9807281
	c0.861618-1.1554031,1.7468109-2.2858887,2.65271-3.393219L103.9410248,99.5644226z"/>
<path class="st0" d="M90.5917587,87.2059326c-1.6059723,1.9036789-3.1797638,3.8440323-4.6830673,5.8610077l10.9249573,8.1321182
	c1.2095337-1.6247406,2.4678421-3.1974106,3.7522202-4.7407837L90.5917587,87.2059326z"/>
<path class="st2" d="M111.6116257,91.3396606c-1.3237991,1.2879791-2.6424866,2.5830917-3.9056549,3.9475632l8.5725098,7.9363251
	c0.9775085-1.0582504,2.0015411-2.0590439,3.0199661-3.0665894L111.6116257,91.3396606z"/>
<path class="st0" d="M99.6318207,77.5979156c-1.8004532,1.7221527-3.5632324,3.4941254-5.2691269,5.3363266l9.9845047,9.2435837
	c1.3725739-1.4866638,2.8041534-2.9004593,4.2455902-4.3009872L99.6318207,77.5979156z"/>
<path class="st2" d="M131.3176727,90.0802231c1.16362-0.8231354,2.3394775-1.6263733,3.5405273-2.387413l-5.612793-10.19104
	c-1.5604477,0.9646072-3.0825958,1.9946899-4.5878983,3.0528183L131.3176727,90.0802231z"/>
<path class="st2" d="M120.0922012,83.9586945c-1.4494171,1.1442566-2.8824997,2.3135529-4.2806473,3.5333023l7.6583786,8.7846222
	c1.0819168-0.9483261,2.1867905-1.8641129,3.3032608-2.7624893L120.0922012,83.9586945z"/>
<path class="st0" d="M122.0134048,76.7729034c1.6493835-1.1654205,3.3182297-2.298912,5.0311127-3.3575363L120.519577,61.568161
	c-2.1345215,1.2889786-4.2158966,2.6722336-6.2707062,4.0995483L122.0134048,76.7729034z"/>
<path class="st0" d="M109.6517487,69.0264969c-1.9775925,1.5184555-3.9278641,3.0788574-5.8185043,4.7256393l8.9612198,10.2790451
	c1.5196457-1.3305435,3.0790939-2.6038818,4.6569977-3.8492889L109.6517487,69.0264969z"/>
<path class="st3" d="M150.8327484,35.2233582c2.1324615-1.409153,4.2889709-2.7798691,6.4928894-4.0696983l-7.7609863-15.0264778
	c-2.7431335,1.558672-5.4208374,3.2316952-8.0669403,4.9556007L150.8327484,35.2233582z"/>
<path class="st4" d="M163.8804474,41.1237602c-0.7699127,2.9605942-1.5987549,5.9044914-2.5007019,8.8249626l22.6394501,8.6245956
	c1.2092133-3.7307625,2.2896118-7.5030975,3.3028259-11.295311L163.8804474,41.1237602z"/>
<path class="st5" d="M179.4978485,25.0308094c2.8058929,0.8205452,5.5962219,1.6906261,8.3514557,2.6622028l7.2969055-17.9362679
	c-3.3887482-1.243947-6.8282928-2.3458138-10.2886047-3.3822985L179.4978485,25.0308094z"/>
<path class="st3" d="M219.4789581,18.3483677c1.3141937,0.3843193,2.621109,0.7918396,3.9115753,1.2468987l3.4176636-8.4008284
	c-1.587204-0.5826283-3.1981812-1.098711-4.8188934-1.5841703L219.4789581,18.3483677z"/>
<path class="st7" d="M217.3087616,21.8563747c-1.0946655,0.1356716-2.1912842,0.2518406-3.2908325,0.3275719l0.1369019,7.3102188
	c1.3596497-0.0761681,2.7157745-0.2091923,4.069397-0.3679905L217.3087616,21.8563747z"/>
<path class="st8" d="M69.6855087,211.3349609c-36.9596977,30.3861084-57.8632393,54.6018982-52.3063507,63.4503479
	c5.6306419,8.966156,37.1623917,0.14505,81.3312759-20.7980957
	C84.9606247,240.8940887,76.6735153,228.5232849,69.6855087,211.3349609z"/>
<path class="st0" d="M73.3925095,220.0770111c0.014122-0.0122986,0.0266571-0.0237885,0.0406799-0.0362701
	c-1.4032974-2.8146515-2.5652542-5.7973938-3.7476807-8.70578c-36.9596977,30.3861084-57.8632393,54.6018982-52.3063507,63.4503479
	c5.6306419,8.966156,37.1623917,0.14505,81.3312759-20.7980957
	C98.710434,253.9872131-32.7942924,313.9848022,73.3925095,220.0770111z"/>
<path class="st0" d="M355.7615967,60.7557373c-6.7724915-10.7841988-52.0257568,4.6755676-110.6610718,35.499649
	c5.0695343,4.4265976,10.0323792,9.1629944,13.9471436,14.4571915l0.0285339,0.0124893
	c0,0,63.2094727-38.6920776,34.7914734-9.7104187c0,0,28.3743591-0.1573563,12.3788452,20.8779526
	c0.0454102-0.0378494,0.0913391-0.0756989,0.1367493-0.1135559c1.3395996-1.1805191,2.8291931-2.4309921,4.4479065-3.7397232
	C343.1528015,90.569725,360.9368896,68.9965744,355.7615967,60.7557373z"/>
<path class="st4" d="M73.3925095,220.0770111c0.014122-0.0122986,0.0266571-0.0237885,0.0406799-0.0362701
	c-1.4032974-2.8146515-2.5652542-5.7973938-3.7476807-8.70578c-71.9797821,71.9702148-41.7126999,70.1695862-9.4814262,58.9952087
	c11.2101402-4.0484924,24.188488-9.5541382,38.5063515-16.3429565
	C98.710434,253.9872131-32.7942924,313.9848022,73.3925095,220.0770111z"/>
<path class="st4" d="M245.1005249,96.2553864c5.0695343,4.4265976,10.0323792,9.1629944,13.9471436,14.4571915l0.0285339,0.0124893
	c0,0,63.2094727-38.6920776,34.7914734-9.7104187C374.1450806,32.2421608,245.1005249,96.2553864,245.1005249,96.2553864z"/>
<path class="st2" d="M91.2396851,215.9059601c0.8527603,1.6485291,1.7388306,3.2811584,2.679039,4.8860016l9.5959244-5.7460785
	c-0.7222824-1.2670746-1.3820572-2.5651855-2.0444565-3.8616791L91.2396851,215.9059601z"/>
<path class="st3" d="M75.0795364,223.3644257c1.1410446,2.2126465,2.3450851,4.3953705,3.621109,6.5401611l11.1783218-6.6935272
	c-1.0174255-1.753952-1.9759674-3.5380707-2.8943481-5.341217L75.0795364,223.3644257z"/>
<ellipse class="st1" cx="185.9811096" cy="167.6546783" rx="92.0961456" ry="92.4260712"/>
<path class="st9" d="M136.8735809,83.4631577c1.428009-0.2033157,2.8581085-0.3853836,4.2915649-0.5234756l-0.4104156-11.5801926
	c-1.8443756,0.1544418-3.6843567,0.3755112-5.5214539,0.627243L136.8735809,83.4631577z"/>
<path class="st3" d="M133.9795074,69.1250763c1.8521118-0.8020477,3.7168884-1.5708542,5.6061707-2.2694931l-4.0249939-12.8443336
	c-2.3472595,0.8372498-4.6632233,1.7677002-6.9603729,2.748188L133.9795074,69.1250763z"/>
<path class="st9" d="M149.7894745,73.6760406c1.3157349-0.5992355,2.6429749-1.1717224,3.9833832-1.7101822l-3.5935364-10.937458
	c-1.7293243,0.6667213-3.4354706,1.3935699-5.12883,2.1510887L149.7894745,73.6760406z"/>
<path class="st3" d="M141.5100555,54.0188637c1.5497131-1.2974129,3.1216431-2.5666656,4.7380676-3.7767181l-7.4293518-11.107502
	c-2.0159912,1.4694862-3.9704132,3.0227394-5.8955536,4.613266L141.5100555,54.0188637z"/>
<path class="st9" d="M158.1697845,76.8703156c23.4092865-7.1073914,49.5233612-5.2038345,72.6533356,7.4237671l5.0102997-9.2430038
	c-0.3453674-0.193512-0.6760254-0.403183-1.0244446-0.5934296c-25.4675751-13.9040375-54.1324158-16.1517181-79.9128723-8.5532608
	L158.1697845,76.8703156z"/>
<path class="st1" d="M217.5930023,110.9839096c-31.5350189-17.2165146-71.006134-5.5174255-88.1611938,26.1305466
	s-5.497818,71.2604523,26.0371857,88.4769745s71.0060883,5.5175171,88.1611481-26.1304626
	S249.128006,128.2004242,217.5930023,110.9839096z M158.4543304,215.3174286
	c-26.4381409-14.4338837-36.245575-47.7625122-21.8639679-74.2939758
	c14.3823547-26.5328445,47.5917053-36.3764877,74.0298462-21.9426041s36.2462616,47.762886,21.8639069,74.2957382
	C218.1025085,219.9080505,184.8924713,229.7513123,158.4543304,215.3174286z"/>
<g>
	<path class="st7" d="M150.0726471,230.7815399c-34.9341431-19.0722656-47.8944855-63.1112213-28.8902969-98.1705017
		s62.8864975-48.0657501,97.8206253-28.9934769s47.893631,63.1114731,28.8894348,98.1707535
		S185.0067749,249.8538055,150.0726471,230.7815399z M214.0469971,112.7604523
		c-29.9108276-16.3297958-67.4828949-5.1936417-83.7543945,24.8243256
		c-16.2711945,30.0174103-5.1747971,67.7240753,24.7360229,84.0538635
		c29.9102631,16.3294983,67.4823303,5.1933441,83.7535248-24.8240662
		C255.0536499,166.7966003,243.9572601,129.0899353,214.0469971,112.7604523z"/>
</g>
<path class="st9" d="M158.4543152,215.3174438c-26.4381409-14.4338837-36.245575-47.7625122-21.8639679-74.2939758
	c14.3823547-26.5328445,47.5917053-36.3764877,74.0298462-21.9426041s36.2462616,47.762886,21.8639069,74.2957382
	C218.1024933,219.9080658,184.8924561,229.7513275,158.4543152,215.3174438z M209.847168,120.5069427
	c-25.6540985-14.0058365-57.8799896-4.4536819-71.8358307,21.2923126s-4.4380951,58.0862732,21.2159882,72.0921173
	c25.6548004,14.0062103,57.8799438,4.4554443,71.8357849-21.2905579S235.5019531,134.5131531,209.847168,120.5069427z"/>
<path class="st9" d="M235.299408,248.5866699c-26.9127197,16.6138-61.3982391,19.2522278-91.4539185,4.4181671l-5.0231323,9.266861
	c33.4975433,16.2536011,71.7568512,13.0779724,101.5277405-5.5873413L235.299408,248.5866699z"/>
<path class="st3" d="M244.218338,262.8864136l-3.8709869-6.2064209
	c-29.7672577,18.6562805-68.0193481,21.8249207-101.5148926,5.5730591l-5.0531769,9.3220825h0.0001221l-3.2468872,5.9898376
	c39.1636047,19.0318604,83.9265289,15.2615662,118.6771393-6.6761475L244.218338,262.8864136z"/>
<path class="st3" d="M119.0588074,271.2175903c2.0333481,1.2687988,4.1016312,2.5007019,6.2320328,3.6637573
	c0.0578842,0.0315247,0.1165161,0.059967,0.1744003,0.0913696l5.8667755-10.8231201
	c-1.7875977-1.0006714-3.528923-2.0526733-5.2391815-3.1374512L119.0588074,271.2175903z"/>
<path class="st9" d="M135.0152588,248.0670013l-6.0409241,8.7644806c1.5657959,0.9756165,3.1622925,1.9188232,4.7950897,2.8215637
	l5.0388336-9.2958984C137.5182648,249.6217651,136.2577209,248.8538361,135.0152588,248.0670013z"/>
<path class="st3" d="M108.3188477,263.6722412c1.9430313,1.5228271,3.9209976,3.0132446,5.9741821,4.4300537l7.0741959-10.2636414
	c-1.6678467-1.1825867-3.2811813-2.4181061-4.8663254-3.6799164L108.3188477,263.6722412z"/>
<path class="st9" d="M119.7649918,250.3635406c1.4552841,1.1387482,2.9373856,2.2525787,4.4645157,3.3223419l6.0726166-8.8104095
	c-1.1996765-0.8647003-2.3737869-1.7545624-3.5228195-2.6676025L119.7649918,250.3635406z"/>
<path class="st9" d="M119.2419357,235.4913025l-7.9383087,7.4487c1.3262939,1.289856,2.6774139,2.5595551,4.0799255,3.7855682
	l7.0602264-8.2091217C121.3480148,237.5319366,120.2844315,236.5201416,119.2419357,235.4913025z"/>
<path class="st3" d="M107.7072144,246.314682l-9.2597275,8.6885986c1.7722549,1.7271576,3.5818176,3.4240265,5.4712067,5.0526581
	l8.2247238-9.5630798C110.6156616,249.1414032,109.1476517,247.7392578,107.7072144,246.314682z"/>
<path class="st9" d="M103.6846771,234.7418976c1.1810837,1.4259491,2.3876266,2.8343658,3.6491776,4.2024689l7.9862061-7.4937744
	c-0.9801254-1.0917969-1.9232025-2.2105255-2.8476944-3.3421326L103.6846771,234.7418976z"/>
<path class="st3" d="M89.5567474,245.3159027c1.5793991,1.9118042,3.2017212,3.7939606,4.9047394,5.6163788l9.3036499-8.7297821
	c-1.3707047-1.5041962-2.6792831-3.0539551-3.9583054-4.6239929L89.5567474,245.3159027z"/>
<path class="st9" d="M96.9438019,225.6247711c1.035759,1.5673981,2.1008377,3.1179047,3.2230453,4.6329956l8.8356018-6.669632
	c-0.870224-1.2067261-1.6995316-2.4383698-2.5100021-3.6810303L96.9438019,225.6247711z"/>
<path class="st3" d="M81.7408218,234.7282562c1.3679581,2.0740662,2.7874374,4.118454,4.2848816,6.1135254l10.293251-7.7699432
	c-1.1996841-1.6386414-2.3374863-3.3157196-3.4416046-5.012085L81.7408218,234.7282562z"/>
<path class="st9" d="M86.6097565,205.6299133c0.6736298,1.7302856,1.3829346,3.4474182,2.1469955,5.1417847l10.2740402-4.7416687
	c-0.5828094-1.3306732-1.1148529-2.6817474-1.6365356-4.0363312L86.6097565,205.6299133z"/>
<path class="st9" d="M83.0934372,194.9199524c0.4875031,1.792511,1.0149231,3.5739899,1.5952454,5.3385773l10.8069458-3.6438446
	c-0.4397278-1.3804932-0.8410339-2.7727661-1.2181396-4.1716614L83.0934372,194.9199524z"/>
<path class="st3" d="M65.6167145,198.7905273c0.6502991,2.410965,1.3483734,4.8086395,2.1426315,7.1761627l12.558876-4.2346344
	c-0.6260986-1.9227142-1.1882019-3.8650665-1.7095108-5.8188171L65.6167145,198.7905273z"/>
<path class="st9" d="M80.7391129,183.8953857c0.2956467,1.8347015,0.6226044,3.6635132,1.0133057,5.4785461l11.2103806-2.4826813
	c-0.2930298-1.4156799-0.5487595-2.8392487-0.777916-4.267807L80.7391129,183.8953857z"/>
<path class="st3" d="M62.8810463,185.8798218c0.3915749,2.4699097,0.8300552,4.9311981,1.3690834,7.3703156l13.0319138-2.8861847
	c-0.4207687-1.9755249-0.7686844-3.9667206-1.0824203-5.9641571L62.8810463,185.8798218z"/>
<path class="st9" d="M79.5621414,172.6831665c0.1000443,1.8564758,0.2312775,3.7099457,0.4278717,5.5549011l11.4748383-1.2752075
	c-0.1434555-1.4351959-0.2427521-2.8759155-0.3214645-4.318634L79.5621414,172.6831665z"/>
<path class="st3" d="M61.5309258,172.7440033c0.1269913,2.5012207,0.3104897,4.996933,0.587677,7.4799957l13.3450203-1.4830322
	c-0.2110672-2.0068359-0.3496628-4.022934-0.4519501-6.0424042L61.5309258,172.7440033z"/>
<path class="st9" d="M79.5647583,161.4075775c-0.098053,1.8581085-0.1677856,3.7159729-0.1677856,5.5703125l11.5987167-0.0390625
	c0.0076065-1.4394531,0.0782089-2.881424,0.1513138-4.3231354L79.5647583,161.4075775z"/>
<path class="st3" d="M61.5568733,159.5291901c-0.1415863,2.5054779-0.2063293,5.0098267-0.1951027,7.509552l13.4955902-0.0454559
	c0.0013733-2.0167236,0.0742264-4.0368195,0.185997-6.0572968L61.5568733,159.5291901z"/>
<path class="st9" d="M80.7847672,150.1991119c-0.2953949,1.8383179-0.5536194,3.6786499-0.7513428,5.5208588l11.5741425,1.2073517
	c0.1591721-1.4291992,0.353653-2.8573914,0.5783157-4.2837067L80.7847672,150.1991119z"/>
<path class="st3" d="M63.0539436,146.3972626c-0.4105377,2.4783173-0.7719269,4.9596252-1.0286522,7.4443207l13.5007095,1.4082947
	c0.2150574-2.0028381,0.5012207-4.0032806,0.8264389-6.001236L63.0539436,146.3972626z"/>
<path class="st9" d="M83.1901093,139.1858063c-0.4893723,1.7973938-0.9453201,3.5991669-1.3373947,5.4076843l11.4072266,2.4458923
	c0.3082504-1.4016571,0.6611557-2.7984314,1.0345154-4.1924438L83.1901093,139.1858063z"/>
<path class="st3" d="M65.9249573,133.4936829c-0.6751175,2.4235992-1.2871246,4.8555908-1.8095551,7.2967224l13.3053513,2.8528748
	c0.4253845-1.9666443,0.9212494-3.9256592,1.4565353-5.8792725L65.9249573,133.4936829z"/>
<path class="st9" d="M86.7362518,128.4862366c-0.6796112,1.736557-1.3270416,3.4794769-1.9086075,5.2337952l11.1013489,3.6600037
	c0.453949-1.3600922,0.9460754-2.7132874,1.4656372-4.0612335L86.7362518,128.4862366z"/>
<path class="st3" d="M70.1714249,120.9758301c-0.9329758,2.3393402-1.8170471,4.6884537-2.5969543,7.0558472l12.9418488,4.266922
	c0.6308365-1.9080505,1.3370209-3.8024597,2.0787582-5.6898651L70.1714249,120.9758301z"/>
<path class="st9" d="M91.4089661,118.2313614c-0.8586197,1.6576691-1.675705,3.3254852-2.4417648,5.0054398l10.655632,4.8311768
	c0.5955353-1.3018799,1.227623-2.5951157,1.8831635-3.8823395L91.4089661,118.2313614z"/>
<path class="st3" d="M75.7172318,108.9777679c-1.1784668,2.2315521-2.2777252,4.4835129-3.3078766,6.7516251l12.4161682,5.6295242
	c0.8313065-1.8278122,1.7192459-3.6419754,2.6562042-5.4434891L75.7172318,108.9777679z"/>
<path class="st9" d="M97.199028,108.5750198c-1.0229111,1.5364838-2.02948,3.0897522-2.9816666,4.6945877l10.0775681,5.9428864
	c0.7379913-1.2424088,1.5233917-2.4400024,2.3090363-3.6368408L97.199028,108.5750198z"/>
<path class="st3" d="M82.575737,97.6899185c-1.3939056,2.062294-2.7399063,4.1726608-4.0234146,6.3419952l11.7411728,6.9237671
	c1.0341415-1.7466888,2.1247864-3.4401627,3.2392654-5.109726L82.575737,97.6899185z"/>
<path class="st9" d="M103.9410248,99.5644226c-1.1790924,1.4198074-2.3336105,2.8674088-3.4468384,4.3594513l9.3781128,6.9807281
	c0.861618-1.1554031,1.7468109-2.2858887,2.65271-3.393219L103.9410248,99.5644226z"/>
<path class="st3" d="M90.5917587,87.2059326c-1.6059723,1.9036789-3.1797638,3.8440323-4.6830673,5.8610077l10.9249573,8.1321182
	c1.2095337-1.6247406,2.4678421-3.1974106,3.7522202-4.7407837L90.5917587,87.2059326z"/>
<path class="st9" d="M111.6116257,91.3396606c-1.3237991,1.2879791-2.6424866,2.5830917-3.9056549,3.9475632l8.5725098,7.9363251
	c0.9775085-1.0582504,2.0015411-2.0590439,3.0199661-3.0665894L111.6116257,91.3396606z"/>
<path class="st3" d="M99.6318207,77.5979156c-1.8004532,1.7221527-3.5632324,3.4941254-5.2691269,5.3363266l9.9845047,9.2435837
	c1.3725739-1.4866638,2.8041534-2.9004593,4.2455902-4.3009872L99.6318207,77.5979156z"/>
<path class="st9" d="M131.3176727,90.0802231c1.16362-0.8231354,2.3394775-1.6263733,3.5405273-2.387413l-5.612793-10.19104
	c-1.5604477,0.9646072-3.0825958,1.9946899-4.5878983,3.0528183L131.3176727,90.0802231z"/>
<path class="st9" d="M120.0922012,83.9586945c-1.4494171,1.1442566-2.8824997,2.3135529-4.2806473,3.5333023l7.6583786,8.7846222
	c1.0819168-0.9483261,2.1867905-1.8641129,3.3032608-2.7624893L120.0922012,83.9586945z"/>
<path class="st3" d="M122.0134048,76.7729034c1.6493835-1.1654205,3.3182297-2.298912,5.0311127-3.3575363L120.519577,61.568161
	c-2.1345215,1.2889786-4.2158966,2.6722336-6.2707062,4.0995483L122.0134048,76.7729034z"/>
<path class="st3" d="M109.6517487,69.0264969c-1.9775925,1.5184555-3.9278641,3.0788574-5.8185043,4.7256393l8.9612198,10.2790451
	c1.5196457-1.3305435,3.0790939-2.6038818,4.6569977-3.8492889L109.6517487,69.0264969z"/>
<path class="st3" d="M150.8327484,35.2233582c2.1324615-1.409153,4.2889709-2.7798691,6.4928894-4.0696983l-7.7609863-15.0264778
	c-2.7431335,1.558672-5.4208374,3.2316952-8.0669403,4.9556007L150.8327484,35.2233582z"/>
<path class="st7" d="M163.8804474,41.1237602c-0.7699127,2.9605942-1.5987549,5.9044914-2.5007019,8.8249626l22.6394501,8.6245956
	c1.2092133-3.7307625,2.2896118-7.5030975,3.3028259-11.295311L163.8804474,41.1237602z"/>
<path class="st10" d="M179.4978485,25.0308094c2.8058929,0.8205452,5.5962219,1.6906261,8.3514557,2.6622028l7.2969055-17.9362679
	c-3.3887482-1.243947-6.8282928-2.3458138-10.2886047-3.3822985L179.4978485,25.0308094z"/>
<path class="st3" d="M219.4789581,18.3483677c1.3141937,0.3843193,2.621109,0.7918396,3.9115753,1.2468987l3.4176636-8.4008284
	c-1.587204-0.5826283-3.1981812-1.098711-4.8188934-1.5841703L219.4789581,18.3483677z"/>
<path class="st7" d="M217.3087616,21.8563747c-1.0946655,0.1356716-2.1912842,0.2518406-3.2908325,0.3275719l0.1369019,7.3102188
	c1.3596497-0.0761681,2.7157745-0.2091923,4.069397-0.3679905L217.3087616,21.8563747z"/>
<path class="st8" d="M69.6855087,211.3349609c-36.9596977,30.3861084-57.8632393,54.6018982-52.3063507,63.4503479
	c5.6306419,8.966156,37.1623917,0.14505,81.3312759-20.7980957
	C84.9606247,240.8940887,76.6735153,228.5232849,69.6855087,211.3349609z"/>
<path class="st3" d="M73.3925095,220.0770111c0.014122-0.0122986,0.0266571-0.0237885,0.0406799-0.0362701
	c-1.4032974-2.8146515-2.5652542-5.7973938-3.7476807-8.70578c-36.9596977,30.3861084-57.8632393,54.6018982-52.3063507,63.4503479
	c5.6306419,8.966156,37.1623917,0.14505,81.3312759-20.7980957
	C98.710434,253.9872131-32.7942924,313.9848022,73.3925095,220.0770111z"/>
<path class="st3" d="M355.7615967,60.7557373c-6.7724915-10.7841988-52.0257568,4.6755676-110.6610718,35.499649
	c5.0695343,4.4265976,10.0323792,9.1629944,13.9471436,14.4571915l0.0285339,0.0124893
	c0,0,63.2094727-38.6920776,34.7914734-9.7104187c0,0,28.3743591-0.1573563,12.3788452,20.8779526
	c0.0454102-0.0378494,0.0913391-0.0756989,0.1367493-0.1135559c1.3395996-1.1805191,2.8291931-2.4309921,4.4479065-3.7397232
	C343.1528015,90.569725,360.9368896,68.9965744,355.7615967,60.7557373z"/>
<path class="st7" d="M73.3925095,220.0770111c0.014122-0.0122986,0.0266571-0.0237885,0.0406799-0.0362701
	c-1.4032974-2.8146515-2.5652542-5.7973938-3.7476807-8.70578c-71.9797821,71.9702148-41.7126999,70.1695862-9.4814262,58.9952087
	c11.2101402-4.0484924,24.188488-9.5541382,38.5063515-16.3429565
	C98.710434,253.9872131-32.7942924,313.9848022,73.3925095,220.0770111z"/>
<path class="st7" d="M245.1005249,96.2553864c5.0695343,4.4265976,10.0323792,9.1629944,13.9471436,14.4571915l0.0285339,0.0124893
	c0,0,63.2094727-38.6920776,34.7914734-9.7104187C374.1450806,32.2421608,245.1005249,96.2553864,245.1005249,96.2553864z"/>
<path class="st9" d="M91.2396851,215.9059601c0.8527603,1.6485291,1.7388306,3.2811584,2.679039,4.8860016l9.5959244-5.7460785
	c-0.7222824-1.2670746-1.3820572-2.5651855-2.0444565-3.8616791L91.2396851,215.9059601z"/>
<path class="st3" d="M69.6896515,211.3349304c0.9009171,2.3251953,1.8605804,4.6283722,2.9013367,6.8977203l11.9381409-5.5097046
	c-0.8255615-1.8487244-1.595871-3.7205963-2.3192673-5.6094971L69.6896515,211.3349304z"/>
<path class="st10" d="M141.6369171,249.7397614c-44.9241638-24.5263214-61.5896988-81.1594543-37.1513138-126.2438507
	c24.4391403-45.0857849,80.8698044-61.8120995,125.7939682-37.2857895s61.5903931,81.1598282,37.1512451,126.2456131
	C242.9924164,257.5401306,186.5610657,274.2660828,141.6369171,249.7397614z M227.9605103,90.4883575
	c-42.5734253-23.2429352-96.0516052-7.391716-119.2119446,35.3349152
	c-23.159584,42.725235-7.3660202,96.3953247,35.2073975,119.6382446
	c42.5734253,23.2429504,96.0522919,7.3921051,119.2118835-35.3331451
	C286.328186,167.4017487,270.5339355,113.7312851,227.9605103,90.4883575z"/>
<ellipse class="st3" cx="183.8101349" cy="167.198822" rx="49.4596062" ry="49.6367912"/>
<g>
	<path class="st1" d="M134.4293976,176.1665039l3.7080078-4.4445801c2.402832,1.8944702,5.012207,2.8941193,7.793457,2.8941193
		c1.8193359,0,2.7807617-0.6203766,2.7807617-1.6543427v-0.0686035c0-1.0339661-0.7895508-1.5504456-4.0854492-2.3433228
		c-5.1157227-1.1711731-9.0639648-2.6187286-9.0639648-7.5454865v-0.0686035c0-4.4798584,3.5361328-7.7179871,9.3041992-7.7179871
		c4.0854492,0,7.2783203,1.1025696,9.8876953,3.2038269l-3.3300781,4.7209473
		c-2.1972656-1.5857391-4.6005859-2.3776245-6.7294922-2.3776245c-1.6132813,0-2.4033203,0.6546783-2.4033203,1.5504608v0.0686035
		c0,1.1025696,0.8242188,1.5847626,4.1884766,2.3433228c5.4931641,1.2054749,8.9267578,2.9970245,8.9267578,7.5111847v0.0686035
		c0,4.9277496-3.8798828,7.8561707-9.7163086,7.8561707C141.4333038,180.1631927,137.416214,178.8195343,134.4293976,176.1665039z"
		/>
	<path class="st1" d="M158.0138702,173.0312958h6.7631836v6.7183075h-6.7631836V173.0312958z"/>
	<path class="st1" d="M168.3810577,155.6312866h12.3256836c3.0209961,0,5.1494141,0.7575836,6.5571289,2.1355591
		c0.9614258,0.9996643,1.5449219,2.2747192,1.5449219,3.9280853v0.0686035c0,2.791214-1.5791016,4.4455566-3.7075195,5.3756256
		c2.9179688,0.964386,4.7719727,2.6187286,4.7719727,5.8921356v0.0686035c0,4.1348724-3.3647461,6.649704-9.0981445,6.649704
		h-12.394043V155.6312866z M182.2516632,163.0728912c0-1.3436584-1.0644531-2.0669556-3.0214844-2.0669556h-4.3603516v4.237793
		h4.1889648c2.0253906,0,3.1928711-0.6889801,3.1928711-2.1012573V163.0728912z M179.9513702,169.9293976h-5.081543v4.4455566
		h5.1499023c2.0600586,0,3.1928711-0.7928772,3.1928711-2.2051392v-0.0695801
		C183.2126007,170.7908783,182.1828156,169.9293976,179.9513702,169.9293976z"/>
	<path class="st1" d="M192.3092804,173.0312958h6.7631836v6.7183075h-6.7631836V173.0312958z"/>
	<path class="st1" d="M200.857132,167.7595367v-0.0695801c0-7.0289917,5.355957-12.5418396,12.6342773-12.5418396
		c4.909668,0,8.0683594,2.0679321,10.1967773,4.9963531l-5.0126953,3.8937836
		c-1.3730469-1.6886444-2.9526367-2.8255157-5.2524414-2.8255157c-3.3647461,0-5.7338867,2.8941193-5.7338867,6.4086151v0.0686035
		c0,3.6183929,2.3691406,6.4439087,5.7338867,6.4439087c2.5058594,0,3.9824219-1.1721649,5.4243164-2.9294128l5.0126953,3.5830994
		c-2.2661133,3.1362-5.3217773,5.4442444-10.6088867,5.4442444
		C206.384964,180.2317963,200.857132,174.9600525,200.857132,167.7595367z"/>
	<path class="st1" d="M226.1237335,173.0312958h6.7631836v6.7183075h-6.7631836V173.0312958z"/>
</g>
</svg>
